<mxfile host="app.diagrams.net" modified="2023-07-07T02:57:15.001Z" agent="Mozilla/5.0 (Macintosh; Intel Mac OS X 10_15_7) AppleWebKit/537.36 (KHTML, like Gecko) Chrome/114.0.0.0 Safari/537.36" etag="oqpqzOIrwn8sPCrlV--z" version="21.5.2" type="github">
  <diagram name="Page-1" id="aaaa8250-4180-3840-79b5-4cada1eebb92">
    <mxGraphModel dx="-501" dy="1101" grid="1" gridSize="10" guides="1" tooltips="1" connect="1" arrows="1" fold="1" page="1" pageScale="1" pageWidth="850" pageHeight="1100" background="none" math="0" shadow="0">
      <root>
        <mxCell id="0" />
        <mxCell id="1" parent="0" />
        <mxCell id="s1uv_Bq6hK1aH8mEB6v_-18" value="" style="rounded=1;arcSize=10;dashed=0;fillColor=none;gradientColor=none;strokeWidth=4;" vertex="1" parent="1">
          <mxGeometry x="3241.96" y="306" width="910" height="836" as="geometry" />
        </mxCell>
        <mxCell id="s1uv_Bq6hK1aH8mEB6v_-21" value="" style="rounded=1;arcSize=10;dashed=0;fillColor=none;gradientColor=none;strokeWidth=4;" vertex="1" parent="1">
          <mxGeometry x="4351.96" y="296.09000000000003" width="960" height="836" as="geometry" />
        </mxCell>
        <mxCell id="s1uv_Bq6hK1aH8mEB6v_-2" value="" style="verticalLabelPosition=bottom;html=1;verticalAlign=top;strokeWidth=1;align=center;outlineConnect=0;dashed=0;outlineConnect=0;shape=mxgraph.aws3d.application;fillColor=#4286c5;strokeColor=#57A2D8;aspect=fixed;" vertex="1" parent="1">
          <mxGeometry x="3481.96" y="412" width="426.17" height="473" as="geometry" />
        </mxCell>
        <mxCell id="s1uv_Bq6hK1aH8mEB6v_-6" value="" style="verticalLabelPosition=bottom;html=1;verticalAlign=top;strokeWidth=1;align=center;outlineConnect=0;dashed=0;outlineConnect=0;shape=mxgraph.aws3d.application2;fillColor=#86E83A;strokeColor=#B0F373;aspect=fixed;" vertex="1" parent="1">
          <mxGeometry x="4491.47" y="693" width="302.98" height="259" as="geometry" />
        </mxCell>
        <mxCell id="s1uv_Bq6hK1aH8mEB6v_-8" value="" style="verticalLabelPosition=bottom;html=1;verticalAlign=top;strokeWidth=1;align=center;outlineConnect=0;dashed=0;outlineConnect=0;shape=mxgraph.aws3d.application2;fillColor=#86E83A;strokeColor=#B0F373;aspect=fixed;" vertex="1" parent="1">
          <mxGeometry x="4870.47" y="696" width="302.98" height="259" as="geometry" />
        </mxCell>
        <mxCell id="s1uv_Bq6hK1aH8mEB6v_-9" value="" style="verticalLabelPosition=bottom;html=1;verticalAlign=top;strokeWidth=1;align=center;outlineConnect=0;dashed=0;outlineConnect=0;shape=mxgraph.aws3d.application2;fillColor=#86E83A;strokeColor=#B0F373;aspect=fixed;" vertex="1" parent="1">
          <mxGeometry x="4680.47" y="470.9" width="302.98" height="259" as="geometry" />
        </mxCell>
        <mxCell id="s1uv_Bq6hK1aH8mEB6v_-10" value="Ecommerce Service" style="text;strokeColor=none;fillColor=none;html=1;fontSize=44;fontStyle=1;verticalAlign=middle;align=center;" vertex="1" parent="1">
          <mxGeometry x="3645.04" y="952" width="100" height="40" as="geometry" />
        </mxCell>
        <mxCell id="s1uv_Bq6hK1aH8mEB6v_-12" value="User Service" style="text;strokeColor=none;fillColor=none;html=1;fontSize=33;fontStyle=1;verticalAlign=middle;align=center;" vertex="1" parent="1">
          <mxGeometry x="4781.96" y="404.9" width="100" height="40" as="geometry" />
        </mxCell>
        <mxCell id="s1uv_Bq6hK1aH8mEB6v_-13" value="Cart Service" style="text;strokeColor=none;fillColor=none;html=1;fontSize=33;fontStyle=1;verticalAlign=middle;align=center;" vertex="1" parent="1">
          <mxGeometry x="4592.96" y="996" width="100" height="40" as="geometry" />
        </mxCell>
        <mxCell id="s1uv_Bq6hK1aH8mEB6v_-14" value="Product Service" style="text;strokeColor=none;fillColor=none;html=1;fontSize=33;fontStyle=1;verticalAlign=middle;align=center;" vertex="1" parent="1">
          <mxGeometry x="4971.96" y="996" width="100" height="40" as="geometry" />
        </mxCell>
        <mxCell id="s1uv_Bq6hK1aH8mEB6v_-26" value="" style="edgeStyle=orthogonalEdgeStyle;html=1;endArrow=none;elbow=vertical;startArrow=classic;startFill=1;strokeColor=#000000;curved=1;strokeWidth=4;" edge="1" parent="1">
          <mxGeometry width="100" relative="1" as="geometry">
            <mxPoint x="4594.473684210526" y="691" as="sourcePoint" />
            <mxPoint x="4632" y="570" as="targetPoint" />
            <Array as="points">
              <mxPoint x="4594" y="570" />
            </Array>
          </mxGeometry>
        </mxCell>
        <mxCell id="s1uv_Bq6hK1aH8mEB6v_-27" value="" style="edgeStyle=orthogonalEdgeStyle;html=1;endArrow=block;elbow=vertical;startArrow=block;startFill=1;endFill=1;strokeColor=#000000;curved=1;strokeWidth=4;" edge="1" parent="1">
          <mxGeometry width="100" relative="1" as="geometry">
            <mxPoint x="5050.47" y="580.8285714285713" as="sourcePoint" />
            <mxPoint x="5150.47" y="700" as="targetPoint" />
            <Array as="points">
              <mxPoint x="5150.47" y="581" />
              <mxPoint x="5150.47" y="676" />
            </Array>
          </mxGeometry>
        </mxCell>
        <mxCell id="s1uv_Bq6hK1aH8mEB6v_-28" value="" style="edgeStyle=orthogonalEdgeStyle;html=1;endArrow=none;elbow=vertical;startArrow=classic;startFill=1;strokeColor=#000000;curved=1;strokeWidth=4;" edge="1" parent="1">
          <mxGeometry width="100" relative="1" as="geometry">
            <mxPoint x="4740.469999999999" y="969.299999999999" as="sourcePoint" />
            <mxPoint x="4880.47" y="925.3" as="targetPoint" />
            <Array as="points">
              <mxPoint x="4890.47" y="969.3" />
              <mxPoint x="4890.47" y="925.3" />
            </Array>
          </mxGeometry>
        </mxCell>
        <mxCell id="s1uv_Bq6hK1aH8mEB6v_-29" value="Monolithic Architecture" style="text;strokeColor=none;fillColor=none;html=1;fontSize=40;fontStyle=1;verticalAlign=middle;align=center;" vertex="1" parent="1">
          <mxGeometry x="3646.96" y="200" width="100" height="40" as="geometry" />
        </mxCell>
        <mxCell id="s1uv_Bq6hK1aH8mEB6v_-31" value="Micro Service Architecture" style="text;strokeColor=none;fillColor=none;html=1;fontSize=40;fontStyle=1;verticalAlign=middle;align=center;" vertex="1" parent="1">
          <mxGeometry x="4781.96" y="200" width="100" height="40" as="geometry" />
        </mxCell>
        <mxCell id="s1uv_Bq6hK1aH8mEB6v_-32" value="" style="rounded=1;arcSize=10;dashed=0;fillColor=none;gradientColor=none;strokeWidth=4;" vertex="1" parent="1">
          <mxGeometry x="3180" y="1549.63" width="1033.91" height="900.37" as="geometry" />
        </mxCell>
        <mxCell id="s1uv_Bq6hK1aH8mEB6v_-33" value="" style="verticalLabelPosition=bottom;html=1;verticalAlign=top;strokeWidth=1;align=center;outlineConnect=0;dashed=0;outlineConnect=0;shape=mxgraph.aws3d.application2;fillColor=#86E83A;strokeColor=#B0F373;aspect=fixed;" vertex="1" parent="1">
          <mxGeometry x="3269.51" y="1903" width="302.98" height="259" as="geometry" />
        </mxCell>
        <mxCell id="s1uv_Bq6hK1aH8mEB6v_-34" value="" style="verticalLabelPosition=bottom;html=1;verticalAlign=top;strokeWidth=1;align=center;outlineConnect=0;dashed=0;outlineConnect=0;shape=mxgraph.aws3d.application2;fillColor=#86E83A;strokeColor=#B0F373;aspect=fixed;" vertex="1" parent="1">
          <mxGeometry x="3648.51" y="1906" width="460.9" height="394" as="geometry" />
        </mxCell>
        <mxCell id="s1uv_Bq6hK1aH8mEB6v_-35" value="" style="verticalLabelPosition=bottom;html=1;verticalAlign=top;strokeWidth=1;align=center;outlineConnect=0;dashed=0;outlineConnect=0;shape=mxgraph.aws3d.application2;fillColor=#86E83A;strokeColor=#B0F373;aspect=fixed;" vertex="1" parent="1">
          <mxGeometry x="3458.51" y="1680.9" width="302.98" height="259" as="geometry" />
        </mxCell>
        <mxCell id="s1uv_Bq6hK1aH8mEB6v_-36" value="User Service" style="text;strokeColor=none;fillColor=none;html=1;fontSize=33;fontStyle=1;verticalAlign=middle;align=center;" vertex="1" parent="1">
          <mxGeometry x="3560" y="1614.9" width="100" height="40" as="geometry" />
        </mxCell>
        <mxCell id="s1uv_Bq6hK1aH8mEB6v_-37" value="Cart Service" style="text;strokeColor=none;fillColor=none;html=1;fontSize=33;fontStyle=1;verticalAlign=middle;align=center;" vertex="1" parent="1">
          <mxGeometry x="3371" y="2206" width="100" height="40" as="geometry" />
        </mxCell>
        <mxCell id="s1uv_Bq6hK1aH8mEB6v_-38" value="Product Service" style="text;strokeColor=none;fillColor=none;html=1;fontSize=33;fontStyle=1;verticalAlign=middle;align=center;" vertex="1" parent="1">
          <mxGeometry x="3828.96" y="2340" width="100" height="40" as="geometry" />
        </mxCell>
        <mxCell id="s1uv_Bq6hK1aH8mEB6v_-42" value="Service Scale Up" style="text;strokeColor=none;fillColor=none;html=1;fontSize=40;fontStyle=1;verticalAlign=middle;align=center;" vertex="1" parent="1">
          <mxGeometry x="3646.96" y="1460" width="100" height="40" as="geometry" />
        </mxCell>
        <mxCell id="s1uv_Bq6hK1aH8mEB6v_-44" value="" style="rounded=1;arcSize=10;dashed=0;fillColor=none;gradientColor=none;strokeWidth=4;" vertex="1" parent="1">
          <mxGeometry x="4341.96" y="1549.63" width="1033.91" height="900.37" as="geometry" />
        </mxCell>
        <mxCell id="s1uv_Bq6hK1aH8mEB6v_-45" value="" style="verticalLabelPosition=bottom;html=1;verticalAlign=top;strokeWidth=1;align=center;outlineConnect=0;dashed=0;outlineConnect=0;shape=mxgraph.aws3d.application2;fillColor=#86E83A;strokeColor=#B0F373;aspect=fixed;" vertex="1" parent="1">
          <mxGeometry x="4431.47" y="1903" width="302.98" height="259" as="geometry" />
        </mxCell>
        <mxCell id="s1uv_Bq6hK1aH8mEB6v_-47" value="" style="verticalLabelPosition=bottom;html=1;verticalAlign=top;strokeWidth=1;align=center;outlineConnect=0;dashed=0;outlineConnect=0;shape=mxgraph.aws3d.application2;fillColor=#86E83A;strokeColor=#B0F373;aspect=fixed;" vertex="1" parent="1">
          <mxGeometry x="4620.47" y="1680.9" width="302.98" height="259" as="geometry" />
        </mxCell>
        <mxCell id="s1uv_Bq6hK1aH8mEB6v_-48" value="User Service" style="text;strokeColor=none;fillColor=none;html=1;fontSize=33;fontStyle=1;verticalAlign=middle;align=center;" vertex="1" parent="1">
          <mxGeometry x="4721.96" y="1614.9" width="100" height="40" as="geometry" />
        </mxCell>
        <mxCell id="s1uv_Bq6hK1aH8mEB6v_-49" value="Cart Service" style="text;strokeColor=none;fillColor=none;html=1;fontSize=33;fontStyle=1;verticalAlign=middle;align=center;" vertex="1" parent="1">
          <mxGeometry x="4532.96" y="2206" width="100" height="40" as="geometry" />
        </mxCell>
        <mxCell id="s1uv_Bq6hK1aH8mEB6v_-50" value="Product Service" style="text;strokeColor=none;fillColor=none;html=1;fontSize=33;fontStyle=1;verticalAlign=middle;align=center;" vertex="1" parent="1">
          <mxGeometry x="4910.41" y="2350" width="100" height="40" as="geometry" />
        </mxCell>
        <mxCell id="s1uv_Bq6hK1aH8mEB6v_-51" value="Service Scale Out" style="text;strokeColor=none;fillColor=none;html=1;fontSize=40;fontStyle=1;verticalAlign=middle;align=center;" vertex="1" parent="1">
          <mxGeometry x="4808.92" y="1460" width="100" height="40" as="geometry" />
        </mxCell>
        <mxCell id="s1uv_Bq6hK1aH8mEB6v_-55" value="" style="verticalLabelPosition=bottom;html=1;verticalAlign=top;strokeWidth=1;align=center;outlineConnect=0;dashed=0;outlineConnect=0;shape=mxgraph.aws3d.application2;fillColor=#86E83A;strokeColor=#B0F373;aspect=fixed;" vertex="1" parent="1">
          <mxGeometry x="4808.92" y="2041" width="302.98" height="259" as="geometry" />
        </mxCell>
        <mxCell id="s1uv_Bq6hK1aH8mEB6v_-54" value="" style="verticalLabelPosition=bottom;html=1;verticalAlign=top;strokeWidth=1;align=center;outlineConnect=0;dashed=0;outlineConnect=0;shape=mxgraph.aws3d.application2;fillColor=#86E83A;strokeColor=#B0F373;aspect=fixed;" vertex="1" parent="1">
          <mxGeometry x="4808.92" y="1906" width="302.98" height="259" as="geometry" />
        </mxCell>
        <mxCell id="s1uv_Bq6hK1aH8mEB6v_-56" value="" style="rounded=1;arcSize=10;dashed=0;fillColor=none;gradientColor=none;strokeWidth=4;" vertex="1" parent="1">
          <mxGeometry x="3241.96" y="2756" width="910" height="836" as="geometry" />
        </mxCell>
        <mxCell id="s1uv_Bq6hK1aH8mEB6v_-57" value="" style="rounded=1;arcSize=10;dashed=0;fillColor=none;gradientColor=none;strokeWidth=4;" vertex="1" parent="1">
          <mxGeometry x="4351.96" y="2746.09" width="960" height="836" as="geometry" />
        </mxCell>
        <mxCell id="s1uv_Bq6hK1aH8mEB6v_-58" value="" style="verticalLabelPosition=bottom;html=1;verticalAlign=top;strokeWidth=1;align=center;outlineConnect=0;dashed=0;outlineConnect=0;shape=mxgraph.aws3d.application;fillColor=#4286c5;strokeColor=#57A2D8;aspect=fixed;" vertex="1" parent="1">
          <mxGeometry x="3481.96" y="2862" width="426.17" height="473" as="geometry" />
        </mxCell>
        <mxCell id="s1uv_Bq6hK1aH8mEB6v_-59" value="" style="verticalLabelPosition=bottom;html=1;verticalAlign=top;strokeWidth=1;align=center;outlineConnect=0;dashed=0;outlineConnect=0;shape=mxgraph.aws3d.application2;fillColor=#86E83A;strokeColor=#B0F373;aspect=fixed;" vertex="1" parent="1">
          <mxGeometry x="4491.47" y="3143" width="302.98" height="259" as="geometry" />
        </mxCell>
        <mxCell id="s1uv_Bq6hK1aH8mEB6v_-60" value="" style="verticalLabelPosition=bottom;html=1;verticalAlign=top;strokeWidth=1;align=center;outlineConnect=0;dashed=0;outlineConnect=0;shape=mxgraph.aws3d.application2;fillColor=#86E83A;strokeColor=#B0F373;aspect=fixed;" vertex="1" parent="1">
          <mxGeometry x="4870.47" y="3146" width="302.98" height="259" as="geometry" />
        </mxCell>
        <mxCell id="s1uv_Bq6hK1aH8mEB6v_-61" value="" style="verticalLabelPosition=bottom;html=1;verticalAlign=top;strokeWidth=1;align=center;outlineConnect=0;dashed=0;outlineConnect=0;shape=mxgraph.aws3d.application2;fillColor=#86E83A;strokeColor=#B0F373;aspect=fixed;" vertex="1" parent="1">
          <mxGeometry x="4680.47" y="2920.9" width="302.98" height="259" as="geometry" />
        </mxCell>
        <mxCell id="s1uv_Bq6hK1aH8mEB6v_-62" value="Ecommerce Service" style="text;strokeColor=none;fillColor=none;html=1;fontSize=44;fontStyle=1;verticalAlign=middle;align=center;" vertex="1" parent="1">
          <mxGeometry x="3645.04" y="3402" width="100" height="40" as="geometry" />
        </mxCell>
        <mxCell id="s1uv_Bq6hK1aH8mEB6v_-63" value="User Service" style="text;strokeColor=none;fillColor=none;html=1;fontSize=33;fontStyle=1;verticalAlign=middle;align=center;" vertex="1" parent="1">
          <mxGeometry x="4781.96" y="2854.9" width="100" height="40" as="geometry" />
        </mxCell>
        <mxCell id="s1uv_Bq6hK1aH8mEB6v_-64" value="Cart Service" style="text;strokeColor=none;fillColor=none;html=1;fontSize=33;fontStyle=1;verticalAlign=middle;align=center;" vertex="1" parent="1">
          <mxGeometry x="4592.96" y="3446" width="100" height="40" as="geometry" />
        </mxCell>
        <mxCell id="s1uv_Bq6hK1aH8mEB6v_-65" value="Product Service" style="text;strokeColor=none;fillColor=none;html=1;fontSize=33;fontStyle=1;verticalAlign=middle;align=center;" vertex="1" parent="1">
          <mxGeometry x="4971.96" y="3446" width="100" height="40" as="geometry" />
        </mxCell>
        <mxCell id="s1uv_Bq6hK1aH8mEB6v_-67" value="" style="edgeStyle=orthogonalEdgeStyle;html=1;endArrow=block;elbow=vertical;startArrow=block;startFill=1;endFill=1;strokeColor=#000000;curved=1;strokeWidth=4;" edge="1" parent="1">
          <mxGeometry width="100" relative="1" as="geometry">
            <mxPoint x="5050.47" y="3030.828571428571" as="sourcePoint" />
            <mxPoint x="5150.47" y="3150" as="targetPoint" />
            <Array as="points">
              <mxPoint x="5150.47" y="3031" />
              <mxPoint x="5150.47" y="3126" />
            </Array>
          </mxGeometry>
        </mxCell>
        <mxCell id="s1uv_Bq6hK1aH8mEB6v_-69" value="Monolithic Architecture" style="text;strokeColor=none;fillColor=none;html=1;fontSize=40;fontStyle=1;verticalAlign=middle;align=center;" vertex="1" parent="1">
          <mxGeometry x="3646.96" y="2650" width="100" height="40" as="geometry" />
        </mxCell>
        <mxCell id="s1uv_Bq6hK1aH8mEB6v_-70" value="Micro Service Architecture" style="text;strokeColor=none;fillColor=none;html=1;fontSize=40;fontStyle=1;verticalAlign=middle;align=center;" vertex="1" parent="1">
          <mxGeometry x="4781.96" y="2650" width="100" height="40" as="geometry" />
        </mxCell>
        <mxCell id="s1uv_Bq6hK1aH8mEB6v_-71" value="" style="shape=mxgraph.mockup.markup.redX;fillColor=#ff0000;html=1;shadow=0;whiteSpace=wrap;strokeColor=none;" vertex="1" parent="1">
          <mxGeometry x="3508.5" y="2913.5" width="376.92" height="370" as="geometry" />
        </mxCell>
        <mxCell id="s1uv_Bq6hK1aH8mEB6v_-72" value="" style="shape=mxgraph.mockup.markup.redX;fillColor=#ff0000;html=1;shadow=0;whiteSpace=wrap;strokeColor=none;" vertex="1" parent="1">
          <mxGeometry x="4525.81" y="3157.5" width="234.3" height="230" as="geometry" />
        </mxCell>
        <mxCell id="s1uv_Bq6hK1aH8mEB6v_-73" value="" style="rounded=1;arcSize=10;dashed=0;fillColor=none;gradientColor=none;strokeWidth=4;" vertex="1" parent="1">
          <mxGeometry x="3241.96" y="5216" width="910" height="836" as="geometry" />
        </mxCell>
        <mxCell id="s1uv_Bq6hK1aH8mEB6v_-74" value="" style="rounded=1;arcSize=10;dashed=0;fillColor=none;gradientColor=none;strokeWidth=4;" vertex="1" parent="1">
          <mxGeometry x="4351.96" y="5206.09" width="1106.88" height="963.91" as="geometry" />
        </mxCell>
        <mxCell id="s1uv_Bq6hK1aH8mEB6v_-75" value="" style="verticalLabelPosition=bottom;html=1;verticalAlign=top;strokeWidth=1;align=center;outlineConnect=0;dashed=0;outlineConnect=0;shape=mxgraph.aws3d.application;fillColor=#4286c5;strokeColor=#57A2D8;aspect=fixed;" vertex="1" parent="1">
          <mxGeometry x="3481.96" y="5322" width="426.17" height="473" as="geometry" />
        </mxCell>
        <mxCell id="s1uv_Bq6hK1aH8mEB6v_-76" value="" style="verticalLabelPosition=bottom;html=1;verticalAlign=top;strokeWidth=1;align=center;outlineConnect=0;dashed=0;outlineConnect=0;shape=mxgraph.aws3d.application2;fillColor=#86E83A;strokeColor=#B0F373;aspect=fixed;" vertex="1" parent="1">
          <mxGeometry x="4579.37" y="5618.1" width="302.98" height="259" as="geometry" />
        </mxCell>
        <mxCell id="s1uv_Bq6hK1aH8mEB6v_-77" value="" style="verticalLabelPosition=bottom;html=1;verticalAlign=top;strokeWidth=1;align=center;outlineConnect=0;dashed=0;outlineConnect=0;shape=mxgraph.aws3d.application2;fillColor=#86E83A;strokeColor=#B0F373;aspect=fixed;" vertex="1" parent="1">
          <mxGeometry x="4958.37" y="5621.1" width="302.98" height="259" as="geometry" />
        </mxCell>
        <mxCell id="s1uv_Bq6hK1aH8mEB6v_-78" value="" style="verticalLabelPosition=bottom;html=1;verticalAlign=top;strokeWidth=1;align=center;outlineConnect=0;dashed=0;outlineConnect=0;shape=mxgraph.aws3d.application2;fillColor=#86E83A;strokeColor=#B0F373;aspect=fixed;" vertex="1" parent="1">
          <mxGeometry x="4768.37" y="5396" width="302.98" height="259" as="geometry" />
        </mxCell>
        <mxCell id="s1uv_Bq6hK1aH8mEB6v_-79" value="Ecommerce Service" style="text;strokeColor=none;fillColor=none;html=1;fontSize=44;fontStyle=1;verticalAlign=middle;align=center;" vertex="1" parent="1">
          <mxGeometry x="3645.04" y="5862" width="100" height="40" as="geometry" />
        </mxCell>
        <mxCell id="s1uv_Bq6hK1aH8mEB6v_-80" value="User Service" style="text;strokeColor=none;fillColor=none;html=1;fontSize=33;fontStyle=1;verticalAlign=middle;align=center;" vertex="1" parent="1">
          <mxGeometry x="4869.86" y="5330" width="100" height="40" as="geometry" />
        </mxCell>
        <mxCell id="s1uv_Bq6hK1aH8mEB6v_-81" value="Cart Service" style="text;strokeColor=none;fillColor=none;html=1;fontSize=33;fontStyle=1;verticalAlign=middle;align=center;" vertex="1" parent="1">
          <mxGeometry x="4680.86" y="5921.1" width="100" height="40" as="geometry" />
        </mxCell>
        <mxCell id="s1uv_Bq6hK1aH8mEB6v_-82" value="Product Service" style="text;strokeColor=none;fillColor=none;html=1;fontSize=33;fontStyle=1;verticalAlign=middle;align=center;" vertex="1" parent="1">
          <mxGeometry x="5059.86" y="5921.1" width="100" height="40" as="geometry" />
        </mxCell>
        <mxCell id="s1uv_Bq6hK1aH8mEB6v_-86" value="Monolithic Architecture" style="text;strokeColor=none;fillColor=none;html=1;fontSize=40;fontStyle=1;verticalAlign=middle;align=center;" vertex="1" parent="1">
          <mxGeometry x="3646.96" y="5110" width="100" height="40" as="geometry" />
        </mxCell>
        <mxCell id="s1uv_Bq6hK1aH8mEB6v_-87" value="Micro Service Architecture" style="text;strokeColor=none;fillColor=none;html=1;fontSize=40;fontStyle=1;verticalAlign=middle;align=center;" vertex="1" parent="1">
          <mxGeometry x="4883.45" y="5110" width="100" height="40" as="geometry" />
        </mxCell>
        <mxCell id="s1uv_Bq6hK1aH8mEB6v_-89" value="" style="shape=image;verticalLabelPosition=bottom;labelBackgroundColor=default;verticalAlign=top;aspect=fixed;imageAspect=0;image=data:image/png,iVBORw0KGgoAAAANSUhEUgAAAO0AAADVCAMAAACMuod9AAAAilBMVEX///9tsz9qsjuGv2NqsjhmsDNhrilkry9psTlkrzBgrihfrST9/vz0+fHy+O7L4r7r9Obg7th1t0q01qHJ4byt0pjS5sfk8N2JwGi42KaVxniizYqnz5CMwmy11qJwtUN9u1e/3K+byYCXx3t7ulSQxHLR5sbY6c/f7dhaqxm+3K2p0JTD3bTo8uERKsFgAAAO20lEQVR4nO1d2XbiOBDFshav7JAAIRgCIRPI///eSLYxNra1WV4e+j7MnO500yok1XarSqPRP/zDPyQIZpvd9t1uD5fT6juUXMw4aFXU5R5iBB0HtAbHcRDB581YZj2na3uyjm+EQKsTAIT3M+GCwv9Obcka7nzUjagJHPz+JljSByItCfuLOpU1kXfHvZchsch3G7KObdK1rAwI8o7zClnOpQVhr9DpQ1gK77d2USE7bERWfctj4vckKwXe1a1qwaR1l6aFPfYoLN29Gr0bYPZT592wsH3ubCxu9e5uEq2JpQyzNP56FpYKtKlYVgBA/EN0NCrtHPQsrGX5FZp549IfUN0JIpPCLty+ZaUSzUvLCiDdhMOWiusbPMrj3s8xg/v5uq4bvbXkviZmj/K2I8dYAPxiVsdMIR9GAZXZsY0JO8N9y5kAfhXXdaFHGE+S/xNjRznqX0UlwAVF9Y3TPZ3Qo+zeDQm77MU7rkLhvAbsevksQgqxOQcjGIA+fgDnXESmTFDic7zTo+yZ8ZU/Og/y6gFgtqw73VBwSILBu2vKV54OREUlQKvHstj18tIcTUgtpLM1Ie2+rzCvGniaLIs5d+7HY5E208oGknHXQW1ttoUnZmPP2Sp/mZthIBk3AAe5CMyE+mTnmEyzVbLrBmtjYGn8Dsb6PADOafjp5bNRZ+YwNxU2HIbLWAC5v7HbRVb5ha7oUcai7KQIuwFZnwyHA/0PKqpg5tyiUtSghv5j+Do40ctSSfMg931Y1ucJ5/Bqbr5YkNvInfoemPXJAKxSxBNHBo3cqcFZnxQgZ3seiCODJoTQZkDhQB6AVClfG1gA6Asben2LVQ0A/6qWy9LoWMwI1uE0QFtrMZqzfIwZYhtUlYWVws8wVZRzqEvJwCYhfTRI64POtVaGJVpdzThoMsitJfv6FbOQXjcOGuSlxR+cFbM4CK04f6AeqyE6yD4/r2glAZI6xoML9Gj8CgQxDjMiWs7jdngqiryLNNCSXdy1urCzwTkWwBebUt2Lex6ag4zmlf7TC6hfrxH13Qd2a4HH08VP7Fg+XfXiPgjvoQBZku7vUsfiDokckN/YUZJRRws1YaeDSs+QSCGu0XCVh0QOIDWikhlOpCTsejgOsoNval7+kcW4Mto7w2DSM9DfVkey9WAxrtJpGAo5IFGqW0agSJCEwxAW+pcfZVlHSXKqXGhUiyGQAwD5J6XL98QHVClofetfRQECVtpZ8Ni/kD4Vds/Wh26rPdEVleIPKxSK9UwOQLqtqmq4iIAaFCibQz/0Kio00Opiy4dBn32RAxBhuLuaaGJiagpJfVAv6RkAXQz2m6ZE8wMs8SjHWn91m2d0ICKY2Ltls6taxI8s1TdrP/aJe9YQolJiD152v2vjLXisckoqW9NC7SaVDSLXdQn2MCbQOp8j+2vx+Xt9M7mfBbCgT6I9yGTtJqAyEuwDe/u129yXk/VsPB6HYau9lCn2UKa4JjCzs4BdRnjerSbX1raPC1aOLk4q3ww4yI7rWftNT2KmYL4jFvmO48ZeFMJ4e592cVi5mMko5UsjBxkgfFhphWjGweovRJm4RrWbNGr5GIaoo0T/OF/8P9OAHHC8qEnUoo06Uy32lI/a1gfibU/bWhfXsTIxbm1NoOsyOv6pNwVcl1NnzDOXHtEkBwDe92dsrnUNyHFcwFnXn56KcuctTl4Q4lIX6FwJn8XVqt10fL0SB0MI/bqfTPk55bUONU3sXj2m0arW82eN9JwqMR1yACsyacZB6ncP8DLoGuSAg/TrCc1g+V99k+KcE/NpkAMoMj9wQREHDiHA3Iu6/tSTsvXBrY2Fkcbd57QQUJe/rmxKnRzo/cpSJK2ZNdhSaa1qt1KZHMCm+lwb4Eh4JW83WNflpkwO+ManhqgjANyQLm4NqtQsirJa3gB2dnRDPM8wKUKv4ghVBztUTtjoGmOfPxLgt6bkXpUcqJme0jEuDr/YoK5qSpEcQG2McVLGGgs6bdn4iwppFWs3wbz3FBtFcLAQv1wsDoLK08QU0zN+v3FAihviRq+jRFq3JK0iOYAHYHtiskpEfFyrGhgDJVktaKQJvzFowIYFSYR48gp+yQyqdQ4AOIRLy0p+hNT7T3JmC+tVJAdev6t+cPXpSkS19LNYWrfgbu2UrI/BET8NwHKj4q6QRNqCmQoVt3YQ+pgl0IRb+5iYlM/WHJV8RuminFbxKdctfk1tTY7FVcszGh6pp4drPPZBnNV9SPssNgmVFLKBuRnNMWZLltEf61Ta51FW4/RMjpjTxpmdRk+iOGiSXlIn63D8VdnbRu3opvDFViylPzLZsrkJSvZHSOx3gEV8PKWKcRcPabMEhgoVr9f3aBaTOFwjUsmEzEnMQnqV2ijDUz91kBSuSX7t2bnNuK+5vLANJ4SYwDQdLSt3o7I0ahbkKpTm9u80jmF8EgVBfIZsJ93J6++I4fZ9kEMruXayozusxy0lD2kV7q3Xs7EN5snJ9CX7iJ+OU3Zv5bvX+tbIwTlZKpL1554zCjOdLG9voXSHZDuIkpXKd/l8ZwmozN5upH0p8wPUlWCn28KjuYo4ZqJlvtRaOgPXa2QbpDtrEXliMTu2z95UaY4aWK2IIYcwVVBKVjAztzlqTFYpmx0oroaplS4cKDTDPyvdclyQ7MWFtzbkkMIbeuyIr1CYlcsuPn9zKsmKqLahm8NTtShc2pxKLvRSSFpcndkgRrDMOljUyLZbKd5jeJPb3AazxxphlQmr0k87eiqpF69arpim8bRPPVyeNgOpea6Pb+lFsckl4nrxksfz59okkox5pKlzi7yWuEoNMPR7oH/W7tM8CkZKlfCZfE+g3BIktbfdS7vKaRTl4iwb1J0ImckWnZ/k8D3n5ikXeqQ+YiXFK0EYdO0mz2AuOlMv9EitbeWqJYrO1SaDNMYi3yeK1KcznuL9q8npiOc9dJpLLr4JByNlnRHEf7+OWQ+EoVCX3sXdzd8s56yuIBNvs7ZSW9gI1M7DflUI94V7BTWETYb3ccI2URVR01ni0liiQvJIS9iEguf4IyKyr6OIj25s4WvXEjah4LnFPwJGqLZm3Sg2uLgKZGs5NfFB5TLrgkC3i0zN9fyiPTRMT/w57JwKRgQI6qZady/GF+9FdxBBQ2kd9vHN558KQcM8abdQKljh16skP+OviHh6n7Cuiz+rst3s+RGWTpZf/x4qH8yPkmA2uFaoTWZkYrmv/zTQTg3FjIiE68evU27t4i7n5UPlVM+rl8FJcq4HvwZdf048F/cDKR8p19ZmxuM8m1ReidtfoJgFk0KwAVX/ZP2bvmKw7Jvk014LnhWSqVFSwvQDViWJQJN67zgzIVsdzxHWdCXcdV/9hjuaN1AQcWm5NMXLndfvmiszmS4OJfuaAH81yYDFnf/ybBGvn88UOxLcbVxzZZxmHXNvzLEg8gUi3F5NEw+ch/e9X7Ku2T8QNUv2HYAiG8l7Q0W2dqcW4/s7dmtPj8N5Tl4KccLJV7HUXP66ET/yt4k4olJVbDfM4sZjDhSH2fOoA23OOlzvDh7ieaYINi3siF1GZa+ANxvB1VFUPxsbEX7xDvBPjXVCvG5Rk1AJ3LkXKvQ4w3i5xRgJsvOARM0TuO/s+3Q4b8vUgNtVXvPiUhXG3x9nj3NTs49sfIgpTvEF1AhduNQBAFK6hEo6xwRK1LAgb2WAUbvFyhXp5Aq5s4gAFIk7Xe4sT0pSuj7yYcJDW+FkaTrfW8BNUQHeizVvv9s5diXrCQEiNyPcYSJsPTnAB586AH5l0ie4Lmwk1Ei5jyFwY4YV3ibL1U6vCKgDb/eyzOlkF/lEXlIaUXmRocrJwE6PojZXdRVU2iCYbW94/dyzw6vSoA1cf2eKRvt7VMo16AwWPfoEyHwyCmb3E8RKWxp/VTg6GitsuPuPr7lB291YWEYFyAETtS1lfwt5h5U55jv8yqxlo3hUouVaefoWQBiuTOZ7vvP1Ck0+yNCs3YKoc6OijqZ5QrAhl2FyjrLluP7502zpRnDL53oa9+8Ym5HtELK/G65ACjaocNXkK/Br8FMx/9xxMSaYKChhelW/Jqa7xILNS27WQNN3iToA+H05DYLx+uRLyUsV8Hw1M15FN92h18SAgXToK3UA55lHMN4LiyPpMYg25rmjYGL7JTfcNcHaFMdOwUJZwI6rxKioxq/qiLniO1hxjQyRNvmmRvDytPulNtBxCN4vzTd0hpMTrE74eGYK4/Pj4l597prxww5xTt/Gr2q4XtCoo0ZZ6L/b/IJn0qZMiVa0m1Czul0bFjX8Oe4i6ozX20NjNZhP6qDsq7y60g5xL0uToo6vk9sFEIz4znjjnP4TWb1nhY4vNO86aMtuTzAeX7+XyzvFcfMZ4/d+Xy6Xk+/v68/fNHmLovY7CcL4798/tpcD9oiLHLGLI/cwjhSyOTag/Jn55prD5fe42kdzSH0P4jKgDPEvCQNmIAha8/n5fI4Y7BRRRH/nAJj3QoVEjrQDo0ByiZGN3i3/qFA+BxCCEhuR/uH4GZkyZCXMf5TZ6peUOqggRQfxFrAyOcBH2nVQUZPT/yt2ktUzKkiuZ5k7k+/dbRHGR+ek7+CWjrI9gIOsRQ7wkVAHr0HVMB61Nt+mFCTWHReY89kQbq0mOcBHuo0k57TchyBsSw3fqa1B1iQ5OVd7EMfYb6eR5fpI2hD0/nXaW3gACopqEs1qbSGebpNDMQhZ6VffVm9hL49NCqBVAyIHtWmt3aA1YUcjVcKndeA2u8+WQzA5ObQ83Cvq+XHnF7Q8tmAQzlOG1seG8uo9O0f1IxMGEbb/Lq40SoMdzENqVEQnaKOjo4TDUKyQeFS0AfT8DH0GjdpNHSi/ItQOvG7GUfwNQlEZJAf4EI+K6AAVifx2EKiXDRmH192TCR08Ri8AaiuGr0LfCSkn6lDY0WjRq7jOvOMpzp86r4saAupaWDbOqC+zS7Y9jDCbznvxmIHf01Nx5XkN7ctKom5nXOUwvciVwxmDC3qdRD7b8xvzTMIhyFDDhT6mqzlGsOUtBg4i8KuvuahF/B1P9hzA9nCItotr39v6D/8wHPwPxGfphC6yJdIAAAAASUVORK5CYII=;" vertex="1" parent="1">
          <mxGeometry x="3841.96" y="5260.9" width="133.52" height="120" as="geometry" />
        </mxCell>
        <mxCell id="s1uv_Bq6hK1aH8mEB6v_-90" value="" style="shape=image;verticalLabelPosition=bottom;labelBackgroundColor=default;verticalAlign=top;aspect=fixed;imageAspect=0;image=data:image/png,iVBORw0KGgoAAAANSUhEUgAAAO0AAADVCAMAAACMuod9AAAAilBMVEX///9tsz9qsjuGv2NqsjhmsDNhrilkry9psTlkrzBgrihfrST9/vz0+fHy+O7L4r7r9Obg7th1t0q01qHJ4byt0pjS5sfk8N2JwGi42KaVxniizYqnz5CMwmy11qJwtUN9u1e/3K+byYCXx3t7ulSQxHLR5sbY6c/f7dhaqxm+3K2p0JTD3bTo8uERKsFgAAAO20lEQVR4nO1d2XbiOBDFshav7JAAIRgCIRPI///eSLYxNra1WV4e+j7MnO500yok1XarSqPRP/zDPyQIZpvd9t1uD5fT6juUXMw4aFXU5R5iBB0HtAbHcRDB581YZj2na3uyjm+EQKsTAIT3M+GCwv9Obcka7nzUjagJHPz+JljSByItCfuLOpU1kXfHvZchsch3G7KObdK1rAwI8o7zClnOpQVhr9DpQ1gK77d2USE7bERWfctj4vckKwXe1a1qwaR1l6aFPfYoLN29Gr0bYPZT592wsH3ubCxu9e5uEq2JpQyzNP56FpYKtKlYVgBA/EN0NCrtHPQsrGX5FZp549IfUN0JIpPCLty+ZaUSzUvLCiDdhMOWiusbPMrj3s8xg/v5uq4bvbXkviZmj/K2I8dYAPxiVsdMIR9GAZXZsY0JO8N9y5kAfhXXdaFHGE+S/xNjRznqX0UlwAVF9Y3TPZ3Qo+zeDQm77MU7rkLhvAbsevksQgqxOQcjGIA+fgDnXESmTFDic7zTo+yZ8ZU/Og/y6gFgtqw73VBwSILBu2vKV54OREUlQKvHstj18tIcTUgtpLM1Ie2+rzCvGniaLIs5d+7HY5E208oGknHXQW1ttoUnZmPP2Sp/mZthIBk3AAe5CMyE+mTnmEyzVbLrBmtjYGn8Dsb6PADOafjp5bNRZ+YwNxU2HIbLWAC5v7HbRVb5ha7oUcai7KQIuwFZnwyHA/0PKqpg5tyiUtSghv5j+Do40ctSSfMg931Y1ucJ5/Bqbr5YkNvInfoemPXJAKxSxBNHBo3cqcFZnxQgZ3seiCODJoTQZkDhQB6AVClfG1gA6Asben2LVQ0A/6qWy9LoWMwI1uE0QFtrMZqzfIwZYhtUlYWVws8wVZRzqEvJwCYhfTRI64POtVaGJVpdzThoMsitJfv6FbOQXjcOGuSlxR+cFbM4CK04f6AeqyE6yD4/r2glAZI6xoML9Gj8CgQxDjMiWs7jdngqiryLNNCSXdy1urCzwTkWwBebUt2Lex6ag4zmlf7TC6hfrxH13Qd2a4HH08VP7Fg+XfXiPgjvoQBZku7vUsfiDokckN/YUZJRRws1YaeDSs+QSCGu0XCVh0QOIDWikhlOpCTsejgOsoNval7+kcW4Mto7w2DSM9DfVkey9WAxrtJpGAo5IFGqW0agSJCEwxAW+pcfZVlHSXKqXGhUiyGQAwD5J6XL98QHVClofetfRQECVtpZ8Ni/kD4Vds/Wh26rPdEVleIPKxSK9UwOQLqtqmq4iIAaFCibQz/0Kio00Opiy4dBn32RAxBhuLuaaGJiagpJfVAv6RkAXQz2m6ZE8wMs8SjHWn91m2d0ICKY2Ltls6taxI8s1TdrP/aJe9YQolJiD152v2vjLXisckoqW9NC7SaVDSLXdQn2MCbQOp8j+2vx+Xt9M7mfBbCgT6I9yGTtJqAyEuwDe/u129yXk/VsPB6HYau9lCn2UKa4JjCzs4BdRnjerSbX1raPC1aOLk4q3ww4yI7rWftNT2KmYL4jFvmO48ZeFMJ4e592cVi5mMko5UsjBxkgfFhphWjGweovRJm4RrWbNGr5GIaoo0T/OF/8P9OAHHC8qEnUoo06Uy32lI/a1gfibU/bWhfXsTIxbm1NoOsyOv6pNwVcl1NnzDOXHtEkBwDe92dsrnUNyHFcwFnXn56KcuctTl4Q4lIX6FwJn8XVqt10fL0SB0MI/bqfTPk55bUONU3sXj2m0arW82eN9JwqMR1yACsyacZB6ncP8DLoGuSAg/TrCc1g+V99k+KcE/NpkAMoMj9wQREHDiHA3Iu6/tSTsvXBrY2Fkcbd57QQUJe/rmxKnRzo/cpSJK2ZNdhSaa1qt1KZHMCm+lwb4Eh4JW83WNflpkwO+ManhqgjANyQLm4NqtQsirJa3gB2dnRDPM8wKUKv4ghVBztUTtjoGmOfPxLgt6bkXpUcqJme0jEuDr/YoK5qSpEcQG2McVLGGgs6bdn4iwppFWs3wbz3FBtFcLAQv1wsDoLK08QU0zN+v3FAihviRq+jRFq3JK0iOYAHYHtiskpEfFyrGhgDJVktaKQJvzFowIYFSYR48gp+yQyqdQ4AOIRLy0p+hNT7T3JmC+tVJAdev6t+cPXpSkS19LNYWrfgbu2UrI/BET8NwHKj4q6QRNqCmQoVt3YQ+pgl0IRb+5iYlM/WHJV8RuminFbxKdctfk1tTY7FVcszGh6pp4drPPZBnNV9SPssNgmVFLKBuRnNMWZLltEf61Ta51FW4/RMjpjTxpmdRk+iOGiSXlIn63D8VdnbRu3opvDFViylPzLZsrkJSvZHSOx3gEV8PKWKcRcPabMEhgoVr9f3aBaTOFwjUsmEzEnMQnqV2ijDUz91kBSuSX7t2bnNuK+5vLANJ4SYwDQdLSt3o7I0ahbkKpTm9u80jmF8EgVBfIZsJ93J6++I4fZ9kEMruXayozusxy0lD2kV7q3Xs7EN5snJ9CX7iJ+OU3Zv5bvX+tbIwTlZKpL1554zCjOdLG9voXSHZDuIkpXKd/l8ZwmozN5upH0p8wPUlWCn28KjuYo4ZqJlvtRaOgPXa2QbpDtrEXliMTu2z95UaY4aWK2IIYcwVVBKVjAztzlqTFYpmx0oroaplS4cKDTDPyvdclyQ7MWFtzbkkMIbeuyIr1CYlcsuPn9zKsmKqLahm8NTtShc2pxKLvRSSFpcndkgRrDMOljUyLZbKd5jeJPb3AazxxphlQmr0k87eiqpF69arpim8bRPPVyeNgOpea6Pb+lFsckl4nrxksfz59okkox5pKlzi7yWuEoNMPR7oH/W7tM8CkZKlfCZfE+g3BIktbfdS7vKaRTl4iwb1J0ImckWnZ/k8D3n5ikXeqQ+YiXFK0EYdO0mz2AuOlMv9EitbeWqJYrO1SaDNMYi3yeK1KcznuL9q8npiOc9dJpLLr4JByNlnRHEf7+OWQ+EoVCX3sXdzd8s56yuIBNvs7ZSW9gI1M7DflUI94V7BTWETYb3ccI2URVR01ni0liiQvJIS9iEguf4IyKyr6OIj25s4WvXEjah4LnFPwJGqLZm3Sg2uLgKZGs5NfFB5TLrgkC3i0zN9fyiPTRMT/w57JwKRgQI6qZady/GF+9FdxBBQ2kd9vHN558KQcM8abdQKljh16skP+OviHh6n7Cuiz+rst3s+RGWTpZf/x4qH8yPkmA2uFaoTWZkYrmv/zTQTg3FjIiE68evU27t4i7n5UPlVM+rl8FJcq4HvwZdf048F/cDKR8p19ZmxuM8m1ReidtfoJgFk0KwAVX/ZP2bvmKw7Jvk014LnhWSqVFSwvQDViWJQJN67zgzIVsdzxHWdCXcdV/9hjuaN1AQcWm5NMXLndfvmiszmS4OJfuaAH81yYDFnf/ybBGvn88UOxLcbVxzZZxmHXNvzLEg8gUi3F5NEw+ch/e9X7Ku2T8QNUv2HYAiG8l7Q0W2dqcW4/s7dmtPj8N5Tl4KccLJV7HUXP66ET/yt4k4olJVbDfM4sZjDhSH2fOoA23OOlzvDh7ieaYINi3siF1GZa+ANxvB1VFUPxsbEX7xDvBPjXVCvG5Rk1AJ3LkXKvQ4w3i5xRgJsvOARM0TuO/s+3Q4b8vUgNtVXvPiUhXG3x9nj3NTs49sfIgpTvEF1AhduNQBAFK6hEo6xwRK1LAgb2WAUbvFyhXp5Aq5s4gAFIk7Xe4sT0pSuj7yYcJDW+FkaTrfW8BNUQHeizVvv9s5diXrCQEiNyPcYSJsPTnAB586AH5l0ie4Lmwk1Ei5jyFwY4YV3ibL1U6vCKgDb/eyzOlkF/lEXlIaUXmRocrJwE6PojZXdRVU2iCYbW94/dyzw6vSoA1cf2eKRvt7VMo16AwWPfoEyHwyCmb3E8RKWxp/VTg6GitsuPuPr7lB291YWEYFyAETtS1lfwt5h5U55jv8yqxlo3hUouVaefoWQBiuTOZ7vvP1Ck0+yNCs3YKoc6OijqZ5QrAhl2FyjrLluP7502zpRnDL53oa9+8Ym5HtELK/G65ACjaocNXkK/Br8FMx/9xxMSaYKChhelW/Jqa7xILNS27WQNN3iToA+H05DYLx+uRLyUsV8Hw1M15FN92h18SAgXToK3UA55lHMN4LiyPpMYg25rmjYGL7JTfcNcHaFMdOwUJZwI6rxKioxq/qiLniO1hxjQyRNvmmRvDytPulNtBxCN4vzTd0hpMTrE74eGYK4/Pj4l597prxww5xTt/Gr2q4XtCoo0ZZ6L/b/IJn0qZMiVa0m1Czul0bFjX8Oe4i6ozX20NjNZhP6qDsq7y60g5xL0uToo6vk9sFEIz4znjjnP4TWb1nhY4vNO86aMtuTzAeX7+XyzvFcfMZ4/d+Xy6Xk+/v68/fNHmLovY7CcL4798/tpcD9oiLHLGLI/cwjhSyOTag/Jn55prD5fe42kdzSH0P4jKgDPEvCQNmIAha8/n5fI4Y7BRRRH/nAJj3QoVEjrQDo0ByiZGN3i3/qFA+BxCCEhuR/uH4GZkyZCXMf5TZ6peUOqggRQfxFrAyOcBH2nVQUZPT/yt2ktUzKkiuZ5k7k+/dbRHGR+ek7+CWjrI9gIOsRQ7wkVAHr0HVMB61Nt+mFCTWHReY89kQbq0mOcBHuo0k57TchyBsSw3fqa1B1iQ5OVd7EMfYb6eR5fpI2hD0/nXaW3gACopqEs1qbSGebpNDMQhZ6VffVm9hL49NCqBVAyIHtWmt3aA1YUcjVcKndeA2u8+WQzA5ObQ83Cvq+XHnF7Q8tmAQzlOG1seG8uo9O0f1IxMGEbb/Lq40SoMdzENqVEQnaKOjo4TDUKyQeFS0AfT8DH0GjdpNHSi/ItQOvG7GUfwNQlEZJAf4EI+K6AAVifx2EKiXDRmH192TCR08Ri8AaiuGr0LfCSkn6lDY0WjRq7jOvOMpzp86r4saAupaWDbOqC+zS7Y9jDCbznvxmIHf01Nx5XkN7ctKom5nXOUwvciVwxmDC3qdRD7b8xvzTMIhyFDDhT6mqzlGsOUtBg4i8KuvuahF/B1P9hzA9nCItotr39v6D/8wHPwPxGfphC6yJdIAAAAASUVORK5CYII=;" vertex="1" parent="1">
          <mxGeometry x="5079.86" y="5330" width="133.52" height="120" as="geometry" />
        </mxCell>
        <mxCell id="s1uv_Bq6hK1aH8mEB6v_-92" value="" style="shape=image;verticalLabelPosition=bottom;labelBackgroundColor=default;verticalAlign=top;aspect=fixed;imageAspect=0;image=data:image/png,iVBORw0KGgoAAAANSUhEUgAAAN0AAADkCAMAAAArb9FNAAAAulBMVEX///8zZ5EAAAAtZI8nYY0fXYsmYI0TWYgrY44dXIoRWIj5+fn29vb2+Prz8/PX19fKyso7OzttbW3CwsLo6Oi3xdNfX1+urq6Xl5eoqKi+vr7w8PDm5ubg5ux/f3/T09OMjIxERERliKeVq8AxMTGjtsjM1uDX3+d9mbOwwM9DcZhJSUmJiYmpqalWVlZPeZ2MpLsTExN1dXVrjKohISHDz9p6lrEoKChdXV1Yf6FSUlIATIERERE1NTV/bQhJAAAZyElEQVR4nNVdaUPiPBAGe9Eigij3IYqA4AEquOq7+///1kubmRxt0iZBV/b55EFLJpk7k0mpdHSoDhud7kOzfX27/X1ycvJ7e3vffpn0+leDnx7ZYahePY7vT3Jw/vJY/+lBqjCoX/R73clk0u32Ov2Lq+EZ98/LzvhXHmEM992rLx/aWb3fGzc/z2+3zzGznN+3x5PeRV2PW84a3eatbKTb+5duf3jWf9EjjKLZ/zLCqo3uk/qLbpvdi8u8xxsPmotiSGDjC0ird891vut+ciFdxkbzOygDdM9kX6mN4eTZ4MueXzriIp51rQb9633c7VzUh5dn1f1LqoNhvdHvPbRlrP0ytKatf20+sufxRRWnxnzZti+9Rg6XD/uTjEpt29HX2ZrTRvDU2TPpQELbdXv80O31et3uw7h9/Vv852e3caozrno3NelNczvYz7Dk+8NeRV4ip59eDvfsMmn+kRN4/SD+fjvu1KuZL7lsPI4TqX4eG6mI086n8PauGW2XIgPcdxtq+R1cPb7kK55mP1f66z0LCz3o8az1bDI5gjJoXmQnXTLER4WUtS/Mh66HBm+mXnSfOuP4+tzEal5mjfLE0jesDhbz1nI5i7Fs7RajmuxTgt7SY4Ar9sC7OcsMe9zcGMpDgtFudrcuh1HoeZ7v+r7r+p4XBlFlfTebZ2gcPpl9W4d++tPSYT3tvBNmkXJ0tbaH8tna23+R7zplCRzXD6PyXSv18BVzhJ4Kh8ZELisvtdGeW2bTzWYznc6Wu7mcXRISOvfP6blZtDavq7IXRUEQBX55dXM3242yj55tIldGHMD1ovVMZHc25G2BHEyoLkkRtpve+EEQejGr7OH7/p5dAm/9Nm1JhpjGYrreP+tWuEVxHNfdv2J1l3n+7C2SLh590o8+WvwDAyYMuexGp0FQJovpKvIU7FLxvSBYb/JIHE2dwFeN13G9oLyZp574CPPI2z/leRt+ndjy5ZgGKnOcd1ObrdRj44bov84WsnfOPyI//+k9u4Xhm0hgy8tjz+SZ6I6jj6lCpZLHj/xiHlFtU0gaouIH/lsrZbcX60DvcTd0pvyztbeg8JFowwT/9LyAvDP49y370zQomsIUhV7Ay3ytQIJSow3eeP7ehZWiJ3xvyT7fVqvDGCCbW/qHeaWQp7LwPrjxmc3NfjVeOfpqH17hE+GaPUBdW1liAiWT8semkDdkA1zTF95F5o9XojvOzGyK3+BEywwFJ9mgaJjSqbV18cxJvmxFZ35tsfDlmD9nbFA7DakNX7PkZUIp4MtHHFzZkKsIPBS6kVMoNcp3rJjyHVWKyXPLlDuRvPMUcX3y53dKnIE6YIhQr490Na0MTrSh46qtimfZCak5QdlLhQypJV1ZDc6bwuMD7wDi9vBXTFmsNZgoor4Lak5BcfbI3zrw64cVWzqoUSxXnn8VG2/pQ0OAmW5Bu5ddOrR0UxuFsv8KnPC1tcxxL2PceWNC3ilQN2HEdQQnbWGhyvfwUNm92WnL9Otu2OqZMGcdyGPx1y9B09gJHTUGLRs7KYG7oqZPS/ZQtYwJdTSYvRKWbmbJl/D2wRcRtzftZbQvVZ0JD0EwqoSaZ6TuhXfBqnbEVZCRPr5A6ACOj5J8psHsTrkqLB76JeS3Hvllaic1qFJaBaGZERh5Iw1d4ILXMhRYsy/YOksH6g1W/ks0CoXjI3O2NMiLwMnZ8mqkybsprcOsweZrqduzG6qWTfHAKrB4D7zWJD9D1Le2Upj43jM7Y5L3ZuqXa1jRkBB0QSi64jRmVZu/JQiAJ+6snJxcuKiuahrhHtHbAy4iII71PXnFzM4HgwmufZk14OCh17IrnHl/xqvJh/jHe17D2DEmZgA2X790e0Q7IO+t6PUoIMTZbDNCrw6RmwgszVdaA/71aBeKPog81KRuc533qXdWGhPNwdJO3xaCOnnzoskPyOeIPf9dQg/6/BDWwujRzkHVgI+iV8SbEflYl64YMQ7jQ8bnkodH36FTCNCJrRXwfkCsY49S98S0Z6lkJXbuHXl4+i06hcApaTF/NOCp22uDZy4+GFmpBWRMq2FrgvJmPncFhLoO9S3JD5cHKJWQfO/i+xizzHzIee63AHWPhKiz0iWvMq1sOcY+38mYXNLmI2/xAoEzT0WDYOVIoYPwbRqTIASPITcvAlqF6kzicV6TJ29sBhgQW/t1MbkCPizeTY43DW4Fpa7DnBbL6YdvtQydDL5nWizfYO8ekLoub+5svhR9u28ID1KIaoWSB4aDeGLPSN0D+atN6OnOvt8eEODi7ZR2C1VPG/3MBy5CqNqIDsZUXx63Sr4KFk+Z6kY+IsWOn+hwkoxRzWaEwC92ptIMqJ1nKh5zweYTsXvBbN/jAWoPrN0XJ1SkqJTyVwHIh4zmBAWwY81dyAx5evrL4EE6/VXxZR6JcyHl10tRZ7F2KOrfrjFjOB/51gfS0Q1C3cXhawfT+S0ZFQLH9cIwCqIgCML/RrnfBq4KuJlDpM5e7kLi3S4ELV1J6qziyit5iZI+3NC7mbbmo0GtVjsbLeajfJNH/svymS+8zrSgDqaL8UpcGvU2281He8xbm3Vgr24cz51KC5gUWhN1wCf1nccH2rtI+Do3dO52YunfYFa2NBZeWSh24yG3Py7oAEJcXNA4QeUZw3wYmNCJ/bC4Nk061cvQhj+jmexdBAupuwIqE4qmYv9L8DPNB+FAcPfhVIIP5VTXdLYXUy928yoj51LqAkFlxpqyd1iMgDmVcvQqlxCAzt63QJyTWwcv50xIEkDsGu/f9fn4TmUlc6gDVv8oqkE13LQM+ffVFrtWUv49XwxyqENr2GQBeYOPzc3Tma5COM72A2rtFmxrvmrEFsGOPjjfrOIScD8u5/XQ4EmpQ8fiGSME6rWQYSyNtbcnkbXF7MZPatL3Ru+DDjM/3SOCblOXWuXQrcSl7TA5IFpSZ8UTdoCScqMqtevxCIyVprcriVhs3IAz4U64wt1TA080QL68CRw/WG9ms+kNmRwwr9JlgGjlgikVNA6k8sg8myxSV5uV0XhXvCDYL6C7txMwVP2MIApQ6cN3whmYz1EyZbBRILPmaJy6TKlgcR+UBBg7miFXz8yXGXuvu8HedWrdxTwF/9fePUN2j2uemGtAlAL/swgM7u55TfLCuNTCJHDU8WXGqEqTP6O0a0s1sNg+jOPek4wNV1XG5chGhDjYbSXWAfaA3kxNQohWbufz0xlwCr3lgbDoO+mU/RxWh5wUCaF5la0CzAlslMNu6wW/kMbJaKTuVRy5xxfg0+JszXfSgNjh9g+WyRdg7kEyT5gxArGD4mgwCZYbCcAO6QSxw8qjS7UQh1u4M0yA7Jisj/cRz9/oNeS/ThaIIv9f86slKk3jCA8UQEbZ+qwAce8AeTD/eoIHHgLs1Tmhuy5HIDHA8TI3EzRAVRA73EIHPjU158B0Z5lZ8d6QOI8OSu7ZZ+CTd7JokwlZqDZ34GReCGKHShOONeXusMhGAlmo7Jq77mwxWkzdmBuBoTQzihnqOJBRSgxCBWYzVQIHShMK/ky3qZDbpX5fGIQQ1MKn9N6JnJmlDuMtiUFAG/lbFDtUoaQIznSvA01oviXBUenFIK4yzYbfJnkIrA7oSHbA7pRXoaa+GI3v8gFpVr2UrtqoYUSSlV80jF3eyUyw5X0xw51zLFVZ5X8sk1vKA44061oA+0kMAsgqlrRzoW/zALWCpqzAhZPmBZUAA5J1LcBJkLwGih0g+uHPkhyiVlCiCjxkzOnqKU3Y/c5aNZik7D/Qe+ik7EGJqhWymobeCssa5X4MVaueOQUDUs3MRaCKzNFD++SjVQJQKw0VT+cBZaSAOiqeWnyPc5FhCFjUrPgCY0Kub1viseWXU5+yGJrU5UUu6k9nYlSgLuOq4APAmBOBOuKtwGF0syBIk7q8qFMCULGZQt9IQR0GIZ8pR4UnuSR/NBe61IEXqLmHiYFo+u+qnBGEdsCYvwXisCKHyKKm1gZo6kz8ft0oQVFXp9AqaJZ6MsbEIAgMvBF1FU3q8jJ1EoDFS3tOCosQwlKfyxgT+fVFj8kEaFpzzC3r2htFPStwbLoUEepDhzKNWULvDP5stL+v6Weq7bDitfJaZIwmRW2DvnU3a8oTQLpd5SLkDQPeXLTeodKHUnyeJMdTtbS+1IvGFBUh4iTT1ArsOck+ZF2EHOTFd8JoDanDcE2sz5JyCnphsETXaeKwOAfqqUzOJKhj88OowyGLegWlXFANOBHtTPCDIPH6H/KLiSOtjkmk1OlzfSTb/+d3etkQBP4TjvMChENqJoKn0GJZ6sy0CmNCseQNKOEVH0o+GDtZc6oz3pGuGlAXqlNwApTevRJYrygYBdwC4l6Diwz9xaS9Nbe84BlYPKXXbvk5BtSPwiPZyUR3oqEwdgmI4P0ivyhr6LJQhtEpRJqf44BHEISvI+LL6Rq0+6BTelLqQPBIBGvgaoKYF/r+jubneEpAF/Js6GUTueRDkHI4kfetA8GDA5TaFo8mGIs6H0EoYVJ2QPf9uHcju9IBYuwzUeuUGMTijQ0HoeuI4eeMjvehc8wtXsY1AhcT/RRVxy1SOQapI+0YD12VosWWu1AFoAfT2J8qqQwGJnYhQk33VaFo8DGeds4WRl2Y6woz2kAHuHjsDHs6SYVmYysIlgTk/4/p2SqgjrB94cZYYFU8TReP2jx00EDOkVEbaj8FQDbToaRKV7eBUBc5Yjgo0z2YENTmDmcPXwSKAfIsuCOZ04Wxy5Ov6zHlbUbxH1Ol8ApA1SZyIq4moQ51FTYdyel7W+edMV2boBkiwHF08/pPL3W0SVw7dMLAko/VxAmHtLULg1BnFSw1bAFZnFmAJ5EVBbnDAB6bheV2HBf6kOgmr+AL8lkOhd/iqBCaEpBsQWfi0kFNXzuPOHTGLvm3FQHnMn/cmBqwObKAp2NIewy6tVdmM3tZYMkJTgU/VFMB+BpLjVNglLBB4LqTLg8+Jwm4dNAK+DOXOLQJZg0fYFlyzTS6w5rlKikgEUmtEXf6AZcRl67o0gR6WrRwvNmR534G3m93ygtzKclXcKUh6KaA1EmSRSKGgjuj1/EMHb8cO02L4CwL9/G0cuyPsbIeLPfBpSvu9r3ldY/uhgb5dE5flgA2sW1P/dKqrJXDndP0YOnaBf4zw4R3VzRZE2NjZbYCVZtJ5XDqK2gkxOQAW7Ohm6JxVUldZE0tVIoGj+bgkCNsMD4vYvt68CfYsaNlYXkgH4XqB02XN8CztvLRY1Ru2VIoAa21Bcac+VjzfqW/dNxJ5mQ8eqyESkMxfNxoPORIM20sBPplTfvHwvUMxT3MuamA5pOaasCDTI28cyOY+8PO5wVCN+lRhDYQ3CtJo1opBNbUNOi0dlnGm+hqGCQRJeCLWfdOWXgnDDfddl2JMc+ausUdkIkt1ZzsYqOxOrBfKL94tQh9T2xTq3sJw5WgNTVz0vTkxyhzEg0l5tDuJKyX8V4CsBMotu9+0CSOP5hX0s+LY4KgNEr3q8UA5uA2CbT16F6CkU3xZgtt4lBrkrXW3i6hBfqDVCPmCPyUw1txYQqltIGDTtQaPJa0URfCIN0p5xjnhufBohPUBqCKZYD15HCphbgvcnp5mXdJDPE1YbtEW1xcdiqi5TH1iGkRq74tKXhTcaC9lCEfNLpNIPipp8ofCWeE9D1fl/UT544DgTa16h+RQSQYPdwWea8Or/rdzKWAY/kKwlOQX9KPWnxGXnxjRHJ3CnLTF/WIC3nN/35SALmFf+IVUVF3Mg7Bhn/LaHm39iNgpq9gzLJoFi6KiFP4nsLhPP1epv6N7GVkiv47vGdAAo/xRzFxiuQt+RfUP+i69pxayWDUmu9mGteTFMAJ1jOUJvXlc9zNbO+ywUAMC3pFj6sqK9mbxBWcFl/FkYfwhjv11pBczXeO97TRf8pygJCpANdUK6RmvXMb9+q0Yk2nn7wK3B0WZJSd8ScxALf3zUlHvBQQkoAT2Sgg3gUNpWMUaN/j2Bk4l1T7AN6sladoDgohWG0RDYFydQcoCuqIYUa/3VFEXK+W/magbLIgh7ChlcKz8L/CxaPzihaWMEx7LCmvsCOuwilkndv4MKyV/g+cHBhc0eLR3v3V9G2OVAQX1A7bZcYoc9SWr9GbBn2dHOrQmsBvBS0raWySvrIUd7EHqyCiCs/0gF8MerZ3FniVsuvPxA4uDPSCvHYedRNh8XJ74XqYBSilXT0MKpNLSiq0/6VFMITO+BQW3o9uZgthBWuj3ext9R9yEah9RQoXo97i+aaduDMGFvdkqiTp4GBliYVVAMbknHHHD4Pyx9vdZrO5e/1YxW0l/IBd1XKfYxFKNL8Ci6d2WCo0nZO6ApVpY7x2AzOD5l1OsP1B2hl3KsldfJUkneMELELCW/xUphe1H/x6p5hwx0FG76WI+1PNPAqlYub9VTW2QJ2Ia/CCY1FvC6WsvYI62uMl7bJTW7BkOhJyB+ab54XnxJxgxRl7el+V2mvCxcNeNFJFTg1dXSDthe028afszQtQAflnHhw/+OAdGXora14JBEgebrXL9k0DdP04K97s8V5KjX8KSjTtqcvmRCt+GH0Il2wO6C1/uXtecOae7vplX007+4MV/5O54ly408mz3qRE6mblwIu1SKUSX+vpBVH5dTYXTTu7z/V3vs0H9sUDURm9yWxBHHBse9mE8IgnjgaA5t2FXGpS91ZtbwFe95ZgutxlL2QdcJdLF+Wnn0X2Td29wNIAe0P3W3Yb4pK/vI5eZ2Oxo+BOJW+XYMJo2xbeWo+Fc8ibM548x8XnJ/INpt3KEz5O59KcOj+nKRwDb5N0NivxtjU667yvgKPty+R3Ma0IOfdKhTGKOXWZzlBZDIRrvbU2Fk7TM7ELwM/wV7hy9YxdGS3f3NR1mv6aExFzax7mdpnbk5a6zF3zsnPc/KOWY3ATxdcQs9vbYoeUpbqr89mNH7vxAvirCEs2a8e3EcpQdvHwRyDtpKkVAMZA3mRlnaPZ292SrUQc4aPUzT6i0M84kU64EqfevH1vAO3Jn3pc9uSsfvH48HSShtEt9fiQYp8lST6h2C1uogxxbrBK5wwsmhOTB8G/eN5ut+kwmUJ+2EIF6mJJi3Ihs0a179ny1Q08P3bb9xbXj++H5tYNPmZ80QA60YW5dfPb4qnxz55jGOC96YJDN5ov9wb35uZtM9sJFvXyxJI6dFX+KGgC/DZbNwIat92m0lx99mJ1obzwcUvqxAbeCryYyBsHFnOPOQegLijhwmmrxm8hPxp3sRQbeEvw58GSNJG8k2Y/YbZhJ53ofsp364gfYUmd2MBbxHOz28ipZNfBOJcncGHVFTHoI1lSB8acOIbN5uf1+fVnuznudhqaRTgFSKcVOHCLeN+RFZU3aDRpS13E34JT6B1b4CpNFKJREg1qu3sxpL7CsNEV/mtJHeSMutw7vhovJxK0Y5aXbKU93/65/ZX9M3mT+cU6/Ai+h7qUkoxxDVu3nQwZCthRhzmjJEcp3dX5EgyFlOULiwzO2nJqvoY6jMyTTVWNAmF71DsP7c/P93EvlUyra9EH1Bn6mdghLXlF0aGDb8KgKxE0wH2nxFFnGgFhN4LkFdKt8L+Cy86LhMJmJ1biyY9EmZpGr2DuiNrOP+vz3ajW+91x++nPr9vzp+ZDr4EuTDI04lSYUidc+qY6k/yzSAIyYolNOVMwd/qlmH8TCcsq2mUVADKLxNwZR3B/BUn+mzhqhtQJ5s4w9v5b+GTUGdZqorkjyQadSPLvI/E3iUtvSp1wubAs5/3zSKw9cQEM94AguoOd8PzzkT+FxNUmfqlhWYAQ3eUf3P0xJAEwyQ8YUgfn23ILUH4aEyY0Zn0C8Xzf5OipIwrP7Mbc7K3XR4jE07C5qE28sVzvrNZfR4eZYrPTXOLlU7m9Dn4OfeZGmZXvQ/wDxU/H6aqQepYJ+dmIOjhWWz9mY05GB+GLkTWH+Kd/zMacJJKh0tqEODH+UfTT+nEkcgNJEZMKTUeIf+SN3o4AnLUyKfLD897EIOieAP3riPN1UNhjctLQFwzCccauJZh88qNNe05C3QEbWd+LNksbmQTn4gWu37FF8iV4YOGrSYAHzXlJhPD8kwTkosc4yyBIQJU5PuJ0X4wLKzcakypEZapP4Pw0hpzO0+dMbF9BxE730PwPgGMt/Y5wsO1aP+bgLkFcbQL7U9oGD8WO7GxPfmzsxRgzg6eda0db/nTMLnSCDjMJ2o1koNFI9ZhzKgSXnNbTZUwope4fPWOSVDk2btFjTWw7QsrfvqY45bvwwLhLL7WCS0eyDlp9mX4OdZb006tZwfY+k2NOOlD8ZjZBJ3NETy0euY8JeODUurzDEw96s+PkyL0wQJ3Ptxb1OQqRuMG/sXTAYrB4+TbPiejxkft/QupKkNjCI3+tHPI8VgZPkmE/VIRjBLLDiJvDSwV5jueypgfCZTdHDlJvhbWwcy9rFxw3WnMl/pCCNujL9IO4Eu1y7S3i2644rhetZ/y5EVi5ny0w0gdREWwnZzRdBaEXHxX0gnC92Ykn6qCk92hztGkAp/F5ycF8OZvNlrvMWZ8q1g3+E0KX4CVLngK0pvU4CwHkgCEX5cz7tFrwuEODFLB+fJsTaZ/26Cmm7b/Dlglo9X9TznKnfe4009FuiyjBzm60M/7VVVc4pHL0rrME/NGUp+5FfVAtVQf1i944fQjywCMwP4ScoykMOb2tjhz1Qtqa/yxtMdLdWASc9452K0sTA+nRm1gSe/+S+Vai2smcvWl3tXp2/yu46kyaT9fn9+/NyWPjGwz3/8PJAqs66mmYAAAAAElFTkSuQmCC;" vertex="1" parent="1">
          <mxGeometry x="3961.96" y="5400" width="126.01" height="130" as="geometry" />
        </mxCell>
        <mxCell id="s1uv_Bq6hK1aH8mEB6v_-93" value="" style="shape=image;verticalLabelPosition=bottom;labelBackgroundColor=default;verticalAlign=top;aspect=fixed;imageAspect=0;image=data:image/png,iVBORw0KGgoAAAANSUhEUgAAAN0AAADkCAMAAAArb9FNAAAAulBMVEX///8zZ5EAAAAtZI8nYY0fXYsmYI0TWYgrY44dXIoRWIj5+fn29vb2+Prz8/PX19fKyso7OzttbW3CwsLo6Oi3xdNfX1+urq6Xl5eoqKi+vr7w8PDm5ubg5ux/f3/T09OMjIxERERliKeVq8AxMTGjtsjM1uDX3+d9mbOwwM9DcZhJSUmJiYmpqalWVlZPeZ2MpLsTExN1dXVrjKohISHDz9p6lrEoKChdXV1Yf6FSUlIATIERERE1NTV/bQhJAAAZyElEQVR4nNVdaUPiPBAGe9Eigij3IYqA4AEquOq7+///1kubmRxt0iZBV/b55EFLJpk7k0mpdHSoDhud7kOzfX27/X1ycvJ7e3vffpn0+leDnx7ZYahePY7vT3Jw/vJY/+lBqjCoX/R73clk0u32Ov2Lq+EZ98/LzvhXHmEM992rLx/aWb3fGzc/z2+3zzGznN+3x5PeRV2PW84a3eatbKTb+5duf3jWf9EjjKLZ/zLCqo3uk/qLbpvdi8u8xxsPmotiSGDjC0ird891vut+ciFdxkbzOygDdM9kX6mN4eTZ4MueXzriIp51rQb9633c7VzUh5dn1f1LqoNhvdHvPbRlrP0ytKatf20+sufxRRWnxnzZti+9Rg6XD/uTjEpt29HX2ZrTRvDU2TPpQELbdXv80O31et3uw7h9/Vv852e3caozrno3NelNczvYz7Dk+8NeRV4ip59eDvfsMmn+kRN4/SD+fjvu1KuZL7lsPI4TqX4eG6mI086n8PauGW2XIgPcdxtq+R1cPb7kK55mP1f66z0LCz3o8az1bDI5gjJoXmQnXTLER4WUtS/Mh66HBm+mXnSfOuP4+tzEal5mjfLE0jesDhbz1nI5i7Fs7RajmuxTgt7SY4Ar9sC7OcsMe9zcGMpDgtFudrcuh1HoeZ7v+r7r+p4XBlFlfTebZ2gcPpl9W4d++tPSYT3tvBNmkXJ0tbaH8tna23+R7zplCRzXD6PyXSv18BVzhJ4Kh8ZELisvtdGeW2bTzWYznc6Wu7mcXRISOvfP6blZtDavq7IXRUEQBX55dXM3242yj55tIldGHMD1ovVMZHc25G2BHEyoLkkRtpve+EEQejGr7OH7/p5dAm/9Nm1JhpjGYrreP+tWuEVxHNfdv2J1l3n+7C2SLh590o8+WvwDAyYMuexGp0FQJovpKvIU7FLxvSBYb/JIHE2dwFeN13G9oLyZp574CPPI2z/leRt+ndjy5ZgGKnOcd1ObrdRj44bov84WsnfOPyI//+k9u4Xhm0hgy8tjz+SZ6I6jj6lCpZLHj/xiHlFtU0gaouIH/lsrZbcX60DvcTd0pvyztbeg8JFowwT/9LyAvDP49y370zQomsIUhV7Ay3ytQIJSow3eeP7ehZWiJ3xvyT7fVqvDGCCbW/qHeaWQp7LwPrjxmc3NfjVeOfpqH17hE+GaPUBdW1liAiWT8semkDdkA1zTF95F5o9XojvOzGyK3+BEywwFJ9mgaJjSqbV18cxJvmxFZ35tsfDlmD9nbFA7DakNX7PkZUIp4MtHHFzZkKsIPBS6kVMoNcp3rJjyHVWKyXPLlDuRvPMUcX3y53dKnIE6YIhQr490Na0MTrSh46qtimfZCak5QdlLhQypJV1ZDc6bwuMD7wDi9vBXTFmsNZgoor4Lak5BcfbI3zrw64cVWzqoUSxXnn8VG2/pQ0OAmW5Bu5ddOrR0UxuFsv8KnPC1tcxxL2PceWNC3ilQN2HEdQQnbWGhyvfwUNm92WnL9Otu2OqZMGcdyGPx1y9B09gJHTUGLRs7KYG7oqZPS/ZQtYwJdTSYvRKWbmbJl/D2wRcRtzftZbQvVZ0JD0EwqoSaZ6TuhXfBqnbEVZCRPr5A6ACOj5J8psHsTrkqLB76JeS3Hvllaic1qFJaBaGZERh5Iw1d4ILXMhRYsy/YOksH6g1W/ks0CoXjI3O2NMiLwMnZ8mqkybsprcOsweZrqduzG6qWTfHAKrB4D7zWJD9D1Le2Upj43jM7Y5L3ZuqXa1jRkBB0QSi64jRmVZu/JQiAJ+6snJxcuKiuahrhHtHbAy4iII71PXnFzM4HgwmufZk14OCh17IrnHl/xqvJh/jHe17D2DEmZgA2X790e0Q7IO+t6PUoIMTZbDNCrw6RmwgszVdaA/71aBeKPog81KRuc533qXdWGhPNwdJO3xaCOnnzoskPyOeIPf9dQg/6/BDWwujRzkHVgI+iV8SbEflYl64YMQ7jQ8bnkodH36FTCNCJrRXwfkCsY49S98S0Z6lkJXbuHXl4+i06hcApaTF/NOCp22uDZy4+GFmpBWRMq2FrgvJmPncFhLoO9S3JD5cHKJWQfO/i+xizzHzIee63AHWPhKiz0iWvMq1sOcY+38mYXNLmI2/xAoEzT0WDYOVIoYPwbRqTIASPITcvAlqF6kzicV6TJ29sBhgQW/t1MbkCPizeTY43DW4Fpa7DnBbL6YdvtQydDL5nWizfYO8ekLoub+5svhR9u28ID1KIaoWSB4aDeGLPSN0D+atN6OnOvt8eEODi7ZR2C1VPG/3MBy5CqNqIDsZUXx63Sr4KFk+Z6kY+IsWOn+hwkoxRzWaEwC92ptIMqJ1nKh5zweYTsXvBbN/jAWoPrN0XJ1SkqJTyVwHIh4zmBAWwY81dyAx5evrL4EE6/VXxZR6JcyHl10tRZ7F2KOrfrjFjOB/51gfS0Q1C3cXhawfT+S0ZFQLH9cIwCqIgCML/RrnfBq4KuJlDpM5e7kLi3S4ELV1J6qziyit5iZI+3NC7mbbmo0GtVjsbLeajfJNH/svymS+8zrSgDqaL8UpcGvU2281He8xbm3Vgr24cz51KC5gUWhN1wCf1nccH2rtI+Do3dO52YunfYFa2NBZeWSh24yG3Py7oAEJcXNA4QeUZw3wYmNCJ/bC4Nk061cvQhj+jmexdBAupuwIqE4qmYv9L8DPNB+FAcPfhVIIP5VTXdLYXUy928yoj51LqAkFlxpqyd1iMgDmVcvQqlxCAzt63QJyTWwcv50xIEkDsGu/f9fn4TmUlc6gDVv8oqkE13LQM+ffVFrtWUv49XwxyqENr2GQBeYOPzc3Tma5COM72A2rtFmxrvmrEFsGOPjjfrOIScD8u5/XQ4EmpQ8fiGSME6rWQYSyNtbcnkbXF7MZPatL3Ru+DDjM/3SOCblOXWuXQrcSl7TA5IFpSZ8UTdoCScqMqtevxCIyVprcriVhs3IAz4U64wt1TA080QL68CRw/WG9ms+kNmRwwr9JlgGjlgikVNA6k8sg8myxSV5uV0XhXvCDYL6C7txMwVP2MIApQ6cN3whmYz1EyZbBRILPmaJy6TKlgcR+UBBg7miFXz8yXGXuvu8HedWrdxTwF/9fePUN2j2uemGtAlAL/swgM7u55TfLCuNTCJHDU8WXGqEqTP6O0a0s1sNg+jOPek4wNV1XG5chGhDjYbSXWAfaA3kxNQohWbufz0xlwCr3lgbDoO+mU/RxWh5wUCaF5la0CzAlslMNu6wW/kMbJaKTuVRy5xxfg0+JszXfSgNjh9g+WyRdg7kEyT5gxArGD4mgwCZYbCcAO6QSxw8qjS7UQh1u4M0yA7Jisj/cRz9/oNeS/ThaIIv9f86slKk3jCA8UQEbZ+qwAce8AeTD/eoIHHgLs1Tmhuy5HIDHA8TI3EzRAVRA73EIHPjU158B0Z5lZ8d6QOI8OSu7ZZ+CTd7JokwlZqDZ34GReCGKHShOONeXusMhGAlmo7Jq77mwxWkzdmBuBoTQzihnqOJBRSgxCBWYzVQIHShMK/ky3qZDbpX5fGIQQ1MKn9N6JnJmlDuMtiUFAG/lbFDtUoaQIznSvA01oviXBUenFIK4yzYbfJnkIrA7oSHbA7pRXoaa+GI3v8gFpVr2UrtqoYUSSlV80jF3eyUyw5X0xw51zLFVZ5X8sk1vKA44061oA+0kMAsgqlrRzoW/zALWCpqzAhZPmBZUAA5J1LcBJkLwGih0g+uHPkhyiVlCiCjxkzOnqKU3Y/c5aNZik7D/Qe+ik7EGJqhWymobeCssa5X4MVaueOQUDUs3MRaCKzNFD++SjVQJQKw0VT+cBZaSAOiqeWnyPc5FhCFjUrPgCY0Kub1viseWXU5+yGJrU5UUu6k9nYlSgLuOq4APAmBOBOuKtwGF0syBIk7q8qFMCULGZQt9IQR0GIZ8pR4UnuSR/NBe61IEXqLmHiYFo+u+qnBGEdsCYvwXisCKHyKKm1gZo6kz8ft0oQVFXp9AqaJZ6MsbEIAgMvBF1FU3q8jJ1EoDFS3tOCosQwlKfyxgT+fVFj8kEaFpzzC3r2htFPStwbLoUEepDhzKNWULvDP5stL+v6Weq7bDitfJaZIwmRW2DvnU3a8oTQLpd5SLkDQPeXLTeodKHUnyeJMdTtbS+1IvGFBUh4iTT1ArsOck+ZF2EHOTFd8JoDanDcE2sz5JyCnphsETXaeKwOAfqqUzOJKhj88OowyGLegWlXFANOBHtTPCDIPH6H/KLiSOtjkmk1OlzfSTb/+d3etkQBP4TjvMChENqJoKn0GJZ6sy0CmNCseQNKOEVH0o+GDtZc6oz3pGuGlAXqlNwApTevRJYrygYBdwC4l6Diwz9xaS9Nbe84BlYPKXXbvk5BtSPwiPZyUR3oqEwdgmI4P0ivyhr6LJQhtEpRJqf44BHEISvI+LL6Rq0+6BTelLqQPBIBGvgaoKYF/r+jubneEpAF/Js6GUTueRDkHI4kfetA8GDA5TaFo8mGIs6H0EoYVJ2QPf9uHcju9IBYuwzUeuUGMTijQ0HoeuI4eeMjvehc8wtXsY1AhcT/RRVxy1SOQapI+0YD12VosWWu1AFoAfT2J8qqQwGJnYhQk33VaFo8DGeds4WRl2Y6woz2kAHuHjsDHs6SYVmYysIlgTk/4/p2SqgjrB94cZYYFU8TReP2jx00EDOkVEbaj8FQDbToaRKV7eBUBc5Yjgo0z2YENTmDmcPXwSKAfIsuCOZ04Wxy5Ov6zHlbUbxH1Ol8ApA1SZyIq4moQ51FTYdyel7W+edMV2boBkiwHF08/pPL3W0SVw7dMLAko/VxAmHtLULg1BnFSw1bAFZnFmAJ5EVBbnDAB6bheV2HBf6kOgmr+AL8lkOhd/iqBCaEpBsQWfi0kFNXzuPOHTGLvm3FQHnMn/cmBqwObKAp2NIewy6tVdmM3tZYMkJTgU/VFMB+BpLjVNglLBB4LqTLg8+Jwm4dNAK+DOXOLQJZg0fYFlyzTS6w5rlKikgEUmtEXf6AZcRl67o0gR6WrRwvNmR534G3m93ygtzKclXcKUh6KaA1EmSRSKGgjuj1/EMHb8cO02L4CwL9/G0cuyPsbIeLPfBpSvu9r3ldY/uhgb5dE5flgA2sW1P/dKqrJXDndP0YOnaBf4zw4R3VzRZE2NjZbYCVZtJ5XDqK2gkxOQAW7Ohm6JxVUldZE0tVIoGj+bgkCNsMD4vYvt68CfYsaNlYXkgH4XqB02XN8CztvLRY1Ru2VIoAa21Bcac+VjzfqW/dNxJ5mQ8eqyESkMxfNxoPORIM20sBPplTfvHwvUMxT3MuamA5pOaasCDTI28cyOY+8PO5wVCN+lRhDYQ3CtJo1opBNbUNOi0dlnGm+hqGCQRJeCLWfdOWXgnDDfddl2JMc+ausUdkIkt1ZzsYqOxOrBfKL94tQh9T2xTq3sJw5WgNTVz0vTkxyhzEg0l5tDuJKyX8V4CsBMotu9+0CSOP5hX0s+LY4KgNEr3q8UA5uA2CbT16F6CkU3xZgtt4lBrkrXW3i6hBfqDVCPmCPyUw1txYQqltIGDTtQaPJa0URfCIN0p5xjnhufBohPUBqCKZYD15HCphbgvcnp5mXdJDPE1YbtEW1xcdiqi5TH1iGkRq74tKXhTcaC9lCEfNLpNIPipp8ofCWeE9D1fl/UT544DgTa16h+RQSQYPdwWea8Or/rdzKWAY/kKwlOQX9KPWnxGXnxjRHJ3CnLTF/WIC3nN/35SALmFf+IVUVF3Mg7Bhn/LaHm39iNgpq9gzLJoFi6KiFP4nsLhPP1epv6N7GVkiv47vGdAAo/xRzFxiuQt+RfUP+i69pxayWDUmu9mGteTFMAJ1jOUJvXlc9zNbO+ywUAMC3pFj6sqK9mbxBWcFl/FkYfwhjv11pBczXeO97TRf8pygJCpANdUK6RmvXMb9+q0Yk2nn7wK3B0WZJSd8ScxALf3zUlHvBQQkoAT2Sgg3gUNpWMUaN/j2Bk4l1T7AN6sladoDgohWG0RDYFydQcoCuqIYUa/3VFEXK+W/magbLIgh7ChlcKz8L/CxaPzihaWMEx7LCmvsCOuwilkndv4MKyV/g+cHBhc0eLR3v3V9G2OVAQX1A7bZcYoc9SWr9GbBn2dHOrQmsBvBS0raWySvrIUd7EHqyCiCs/0gF8MerZ3FniVsuvPxA4uDPSCvHYedRNh8XJ74XqYBSilXT0MKpNLSiq0/6VFMITO+BQW3o9uZgthBWuj3ext9R9yEah9RQoXo97i+aaduDMGFvdkqiTp4GBliYVVAMbknHHHD4Pyx9vdZrO5e/1YxW0l/IBd1XKfYxFKNL8Ci6d2WCo0nZO6ApVpY7x2AzOD5l1OsP1B2hl3KsldfJUkneMELELCW/xUphe1H/x6p5hwx0FG76WI+1PNPAqlYub9VTW2QJ2Ia/CCY1FvC6WsvYI62uMl7bJTW7BkOhJyB+ab54XnxJxgxRl7el+V2mvCxcNeNFJFTg1dXSDthe028afszQtQAflnHhw/+OAdGXora14JBEgebrXL9k0DdP04K97s8V5KjX8KSjTtqcvmRCt+GH0Il2wO6C1/uXtecOae7vplX007+4MV/5O54ly408mz3qRE6mblwIu1SKUSX+vpBVH5dTYXTTu7z/V3vs0H9sUDURm9yWxBHHBse9mE8IgnjgaA5t2FXGpS91ZtbwFe95ZgutxlL2QdcJdLF+Wnn0X2Td29wNIAe0P3W3Yb4pK/vI5eZ2Oxo+BOJW+XYMJo2xbeWo+Fc8ibM548x8XnJ/INpt3KEz5O59KcOj+nKRwDb5N0NivxtjU667yvgKPty+R3Ma0IOfdKhTGKOXWZzlBZDIRrvbU2Fk7TM7ELwM/wV7hy9YxdGS3f3NR1mv6aExFzax7mdpnbk5a6zF3zsnPc/KOWY3ATxdcQs9vbYoeUpbqr89mNH7vxAvirCEs2a8e3EcpQdvHwRyDtpKkVAMZA3mRlnaPZ292SrUQc4aPUzT6i0M84kU64EqfevH1vAO3Jn3pc9uSsfvH48HSShtEt9fiQYp8lST6h2C1uogxxbrBK5wwsmhOTB8G/eN5ut+kwmUJ+2EIF6mJJi3Ihs0a179ny1Q08P3bb9xbXj++H5tYNPmZ80QA60YW5dfPb4qnxz55jGOC96YJDN5ov9wb35uZtM9sJFvXyxJI6dFX+KGgC/DZbNwIat92m0lx99mJ1obzwcUvqxAbeCryYyBsHFnOPOQegLijhwmmrxm8hPxp3sRQbeEvw58GSNJG8k2Y/YbZhJ53ofsp364gfYUmd2MBbxHOz28ipZNfBOJcncGHVFTHoI1lSB8acOIbN5uf1+fVnuznudhqaRTgFSKcVOHCLeN+RFZU3aDRpS13E34JT6B1b4CpNFKJREg1qu3sxpL7CsNEV/mtJHeSMutw7vhovJxK0Y5aXbKU93/65/ZX9M3mT+cU6/Ai+h7qUkoxxDVu3nQwZCthRhzmjJEcp3dX5EgyFlOULiwzO2nJqvoY6jMyTTVWNAmF71DsP7c/P93EvlUyra9EH1Bn6mdghLXlF0aGDb8KgKxE0wH2nxFFnGgFhN4LkFdKt8L+Cy86LhMJmJ1biyY9EmZpGr2DuiNrOP+vz3ajW+91x++nPr9vzp+ZDr4EuTDI04lSYUidc+qY6k/yzSAIyYolNOVMwd/qlmH8TCcsq2mUVADKLxNwZR3B/BUn+mzhqhtQJ5s4w9v5b+GTUGdZqorkjyQadSPLvI/E3iUtvSp1wubAs5/3zSKw9cQEM94AguoOd8PzzkT+FxNUmfqlhWYAQ3eUf3P0xJAEwyQ8YUgfn23ILUH4aEyY0Zn0C8Xzf5OipIwrP7Mbc7K3XR4jE07C5qE28sVzvrNZfR4eZYrPTXOLlU7m9Dn4OfeZGmZXvQ/wDxU/H6aqQepYJ+dmIOjhWWz9mY05GB+GLkTWH+Kd/zMacJJKh0tqEODH+UfTT+nEkcgNJEZMKTUeIf+SN3o4AnLUyKfLD897EIOieAP3riPN1UNhjctLQFwzCccauJZh88qNNe05C3QEbWd+LNksbmQTn4gWu37FF8iV4YOGrSYAHzXlJhPD8kwTkosc4yyBIQJU5PuJ0X4wLKzcakypEZapP4Pw0hpzO0+dMbF9BxE730PwPgGMt/Y5wsO1aP+bgLkFcbQL7U9oGD8WO7GxPfmzsxRgzg6eda0db/nTMLnSCDjMJ2o1koNFI9ZhzKgSXnNbTZUwope4fPWOSVDk2btFjTWw7QsrfvqY45bvwwLhLL7WCS0eyDlp9mX4OdZb006tZwfY+k2NOOlD8ZjZBJ3NETy0euY8JeODUurzDEw96s+PkyL0wQJ3Ptxb1OQqRuMG/sXTAYrB4+TbPiejxkft/QupKkNjCI3+tHPI8VgZPkmE/VIRjBLLDiJvDSwV5jueypgfCZTdHDlJvhbWwcy9rFxw3WnMl/pCCNujL9IO4Eu1y7S3i2644rhetZ/y5EVi5ny0w0gdREWwnZzRdBaEXHxX0gnC92Ykn6qCk92hztGkAp/F5ycF8OZvNlrvMWZ8q1g3+E0KX4CVLngK0pvU4CwHkgCEX5cz7tFrwuEODFLB+fJsTaZ/26Cmm7b/Dlglo9X9TznKnfe4009FuiyjBzm60M/7VVVc4pHL0rrME/NGUp+5FfVAtVQf1i944fQjywCMwP4ScoykMOb2tjhz1Qtqa/yxtMdLdWASc9452K0sTA+nRm1gSe/+S+Vai2smcvWl3tXp2/yu46kyaT9fn9+/NyWPjGwz3/8PJAqs66mmYAAAAAElFTkSuQmCC;" vertex="1" parent="1">
          <mxGeometry x="5249.86" y="5330" width="126.01" height="130" as="geometry" />
        </mxCell>
        <mxCell id="s1uv_Bq6hK1aH8mEB6v_-94" value="" style="shape=image;verticalLabelPosition=bottom;labelBackgroundColor=default;verticalAlign=top;aspect=fixed;imageAspect=0;image=data:image/png,iVBORw0KGgoAAAANSUhEUgAAAOEAAADhCAMAAAAJbSJIAAAA/FBMVEX///8AAAD/0kI3eK42bZr/zDv/2Uo3c6f/31D09PQ3eq82bZn6/P0udKw3cqVpj7H/8cJ6enrMzMyPqsP667b//PBKSkp7o8f/9dr+0TkrZ5bu7u69vb0vLy8/Pz+Fp8b889H/2UQfbqnf5+/933GSr83K2OT/yjHDw8NXV1ezs7MUFBT/4ZHk5OSEhITZ2dllZWX/67AgICA4ODgpKSmQkJCenp5SUlJiYmIaGhrO3emqv9L+56L+3l2ZmZlvb29TiLenwNdcj7kiaJ+7zd5umL7++ef923X+4YlJfKX921b/3UT+32b10l/+4nXp4Lb9013l0Yjl1JTe3sN1uOizAAANq0lEQVR4nO2d+1viOBfHocLOlG1H7QJyEVFREZCbDKCOK6iIl5nZdef9//+XtxfapG2SJiW9OXyfZ37AhjafnuSckxuTSm200UYbbZQAiWIDI1GMum5rS2ws6nvzuSwfIyTL83m9vmgkF7Ox2MvJqra2crktjFR2eb63SCJk4/5BNZLKpgsHuMI8lh+SBtmoq9bLWSIDGracnzairjW9NL6tHAvg1qdPn+TcfVLseJY7hvkoAVU9zm+irjuVTo9lf4CaHe+jrr23pL3jLd+AqhnrUQN46lReB1BF/CtqAg8tVEB2JwMpU4l3QxXnoA9u6YkMK+CfmcpZ1BQkLQCgPF+omee3ucwImKk8SFFjEPRghXn51KinVCciugFVxEXEFASJOdOE8p5pCCIiClA1YqQQRFmEWzmQgkl4d4MEVBHjm781TEIZDmunOCNiAP+Msa+xbGjLTW4wDhUDqNowvjEREMLOAkOIBYwzYcOM9vIp9NcFspXiAeNMaNpwS4Zj2hOKkACYAEIV4Bh0xDNUIyUBxp9QR8iZPfEMFSwcgA7FmLABTTrlTqvqX8T7HKKNEi0Yc0JoNHGce9rbQ/F5AcaZULS3SH0mkR0wQYRoeQImndAbMOGEFIDJJqQBjDNhlQtgkgnpAONMKMpEUQLGmVDa89aDJ2CcCWm0ePQCTDrht0cvwA9BSAT8CIRkQINw+eME1sVwGXZNpZtF3Y8ePAENwsPykUNvt2FCntXlY3JowMcJL0CT8A+Hjo7Kt4Vw8KTFA1il98xEvUb01ISqym+HYQA29pj4aDMZCkJBKJfzwQOe5Zh2WbADkghVxtugAe/hbQiBAGIJBV3lYcCAkAEDAsQRCiuVd4IE/CYHbkEcoQAUoEe9yYUAiCaEAMsXgQFKoQAiCQVY5VJQhKdBe1EsoWAn/BkQYAPqhAECIggFh8r/BkNYl0MBdBM6AYXycyCADbAXKFBAF6ELUNVhEIR137noFyZAJyEKMJDMxtqGQMHnBGSTnRAFKAhvARAuZN8WZCW8hwjRgEL5kD/hkxwSoLGzbUWIAQyimVZXfiZ4QJgQBygI79wJz+SwADOZqkmIBxTK3Kc0DE8aBqCxr214RAQMoCPq3TAUCxqTiRdHRED+6bekZmwUfBwAMxl9W9vJERFQKJ9wJrw5Dguw8qQ9r+ABqCJyHiWqjiYkCxp7L/NlD8BsljPhvcduZn6AxpT+iwdhNsvbhthNorwBX/WjQSWym1EBs83wCbkAPhr7g2/JJsxGQsjHggbgkmzCbCSEXAC3q8bTnokmzEZCyCNMVL6tdqWSHWk2EsL1U7VKpm5u0S95N9HQCdGAFXpl6mfWrmKyH81GQugGrDxWvrw+bVNp76/7G2jT9CEdYKiETsBK5XVvcdMQJUrBzylcEJtoNIQOwErmyffB7EL+3TsQhk7oAHzc9n2m5/D2zTNXi4DQ2URtByQLy8MdOt2+nByVvbPtCAjtgJVXcBq7sHNx8vb5+/fvzj0VOHmkog7AsAgdFgSAhxd/f//+WZNrKRcnNsCQCJ190Dx0VvpnhRccYDiETi9qnsm7MPECBAyF0OlkjKFdankSBmAYhK5AbxwEKv39OQzAEAhdqdrqvNpbOIDcCV3zNC7A1U8FvITSREMgdAFmvuij13xYgNwJHacI3YCVJ62RFn6wt1F/gNzn2hoyGXDVSH2Y0Cdg8ydnQkkmAxqeVDoJCzDb5L5tCDrNiwLMVLRguAwNMNs85E0IfvwBDbitdcM871wNC5ht8gYEZ86RgKto+E94gPx31JiuBgOY2YYIgwfMNgPYZTonAhqt9O+wALPNLn9CPW/DARqEhfAA+W9USKVuSIArwj9CAswGsnVPepDxgMCGvADJhO+BbBNeyHhAizAcwGYwG/bFOR7QJAwHMBvUTu/7Ryyg2Q/DAQwiVOgSX7GAjIRrAga1Cdo6/4laPmMiXA8w2wxsI7uafuMAmQjXBQzy6JPeTpELoAyE6wIGe/BpgVvhpSeMN6B2LAgJSE8Yd0AtZKxFuB5gUwj0VNdKZ18q/gnXAmw2X8I5Jdt4qrgZ6QjXAGw2hYvQTjpLZ9sZJyQVoU5RxquJkyC8v+yEdMp5pZvTV8dmEgpCw07DPKuGO6VluHiGGmc2aav3ZEIDkPdEbrgiEgofnVD4bQiFw5KnQv8JDGoRCKGQ4O1Ggzvnu67wY3ymQBhnQh58G8JIhSFkBEweIStg4giZAZNGyMwXyMoZLyEIKSzYbBr/AOFL1CBYuQlpAH8OS6X8TwgxSa2Upg+u5gZ3hCQS0gAeml/+t2wR/hchA1kFZkB46uy2mTQb0liwCQ0jlkkjpAHMvkGjxUICCJdHrIHethz/M/6EhTfWTAZtw/h6mtTzERugbaGsZBH+io7AS8MjNkA4fZGek2DDJSMgHC6GVlbTDOhXoLjo4ogNUEuz9YCxfAZpW5BrvGtr+cY+oheeh8MXAQKM79BCU97z1x6yLmnTa/DnOJswRfNjCB6Ksyc1RHPSnAQY7zaqi2RFCsAk/IeyQwHH6MnX/JUEQDU7OUEjegK+78T5f3e0aecH4sirl/3Kw8Twadp5FpyQRLzmez5x627L4fNbGaIk0Anvv2IeBHHSTjsby2mYmVGd7iX838znqkIpn385EQwcSOVs9ufzr/xhsumAlstSfmjT/5bLatS12ugD6rxtSv8oKqYCOMASiaRR2pSeW51bH2dRV42TpKKdULE+7kZdNU7aECZfG8Lka0OYfP2OhB1D6V7UVeMkJ+HH04bwA2gaJ0JR5DUzJyqTq5pGNdp1jC2Qoyep3x639PKdYm/fMYqv9vcnvdboUr88mk0UTCVFtdzudHSp6WC6e9c+70N3Es/Hq9ZU222vPXDr9r6mEcJEC1HZrdnKdXpmzaTuea946bxPbeKeyajuXyGeeVlcDdG6Y9vVzqC/Dl91jMLDEVbvDtwlR0YFxGkHfafRufOV1tAF0y39ettN3/PfZ/ojxIPwhD1k0Zpetoq7Uzq9Dz1RxL1SVYpWYBd1peh3SuscdTdmwvTYgzANmpmC7BKGplqBK/S1a39W7BMqxUKY9iJsmf6mTSikmxBpQU0HfhCruP7ATCh6EJpG3CeV0V4D4Q2MfRA66tuxeQoi4eWoeHUFOR3FRWi/2ap6XRJgWnVIou2dX9occ4c9atja6LStdLtKG9wTT9hqK0a/B1f3bYSdmXazfhuqrhEHWvATB22lf269h+J412HCXl8U+7BbYk/+oSZ/bboCR07jJmy1oRBuWdFOODWvA0c91b4F139sZBSW3zGMDBleSTneYrrG6k+hXnhpNgCv8WFbsd3Ceh92wqLpFEC30/yECG5u1l+03oF+f6hVtc1nTMDfHHHVUwridowjYC/CvmUTjRDxQEB4ZacZWZ4TFGH2NXe2F8xI2FUm41nLAsAQgmaiPQL0qZa7+gPt4wwFAzpTkZEQdHvQhakIxfbMGbapCMG9rTZjJ5SAd4YaJOi9XxkJR+4H0hAqg7RbNITAq6Qtv29vpeK1VQJyKqBzXjMSggcC9+FJKIKGxErYtdr0pVV/QHhgu0MactggiHZ8E4Ks0Yuwihha0BICW3y1CCWrqzgIoRQNirOMhCC4g0bvQShhAKkIwb0oCLnYEITDCS2hPc27PrBKs9kQ9EM7odhxl4DrcMlICNIX4CfJhF3QsA/G510RDL7Y+iFoNHZCaH0WGlGCIHnASAgMAtIhMiEYTU4MBitnofKloFtYrxQQjrSPYGwI5aAz99coBY1krPuRCe+c5ZkIQRab7pi+DRDqsQ7kBGDA2wUvBp4qoFEXRB+rJ5IJrbdptjI2QqgX18wSFmFN+wRNOVgvHaQ07MMneL5goBjPpCM0UwSmfgjnpemOPkcoKpZddcIUVGL10qHh0xUroGOSZnQ1GAyg6TLHXgyN0DJCcfU22WwIjy20ucPpFBpA1pw86oi132/DI0rWoYUqVP5FIgQZYm13PBn3BlYNqQiJkzQGYRczIanpyscEOHFSQa8lqJNGqGAL0xFCAQpDCI8GnfI1Lew51wYeqBHam5kPQsJk1Yowhc570+yOdCXC7KVeJeD+9AEbdqqMkjClYFuhOTISMfOld/4A1YaKfWd6lcDjjCEpbjaRljDVxzWDkVkj5Oil0075l9JC3NEkBGnUynlj+gk1YUq8Q94Azsja186L07WWZlQ7tmf2FaPRbLyv31O0M+iFx86Vjs7BrNe1EVo4VatRWiFemyKwfPhs33q9U6hC4sT2jIGPMOGW1Df2Xe4rXcgpQxETyifE8/ZkPB5PJm37oh+DqtqSpPpVyfKuA3uBbrs3aBWLLfVdB7pUC2VMwWxnds6XwpIkfmvAOEHOvRXMs0C4WseV+BfkOf0si1AIuB3FuzB/wXnrms4Mo6rVSL9GsalfgRws61ws+obOFX0JhNsW+iuBqg2nH1z89Xm61lOAZ5Tg6D8hfC8YVW2ZBZ83rLf62uxOHRX1+/t3cKZxGXYj7dp3E1zzOYpA2DQQugkd+z04+Tk8IZduziaxDfrINS9HjieM5LiKuL+aQilyezyOsMPFj/mq0QHfHoIhvIwk2K+kTHimvejx8xobumKnrmthNf11N5hkKTJVz82NmaoDqxV3nVs3P4bEbt/YsFpN1MH1jTba6HfX/wG0mlf9BT294gAAAABJRU5ErkJggg==;" vertex="1" parent="1">
          <mxGeometry x="5089.86" y="5980" width="160" height="160" as="geometry" />
        </mxCell>
        <mxCell id="s1uv_Bq6hK1aH8mEB6v_-95" value="" style="shape=image;verticalLabelPosition=bottom;labelBackgroundColor=default;verticalAlign=top;aspect=fixed;imageAspect=0;image=data:image/png,iVBORw0KGgoAAAANSUhEUgAAAOEAAADhCAMAAAAJbSJIAAAAjVBMVEX///9PqkFMqT5JqDpEpjRApS8+pCxGpzb9/vxIqDlDpjLr9eo+pC3z+fJltFn3+/ZdsFHl8uPH4sPb7dnO5suTyIz0+fPf7t19vnTV6dJZr0y63Law1qxUrUam0aBfsVOLxIPC376ezpi527VwuGaEwXup06OBwHh0umqQx4ibzJQpngw1oSCv1qkwoBlD5rxGAAAOgklEQVR4nO1dC3eqOtMuARIIAl6raLHea932/f8/78uEW4KiIvSQ+PVZZ61TdynmIZO5JDPD29sf/vCHP7wa/K4H8OtYR12P4LfxM+t6BL+NGZ52PYTfhYfcfddj+F2ciGGNuh7EbyLChmG+8kr0TGQYBn5dder1gaCBdl0P5LcwiE2Dozfseii/gxEXUT6J8XvXg/kNRCQjaBgvaTEityBoGHTZ9Xhax9gWCTJ9uu16RC1jjI0S8KLrMbWKsYXKDA1r3fWoWsSYXBJka/F1bEaErxE0jPO465G1hBBdJ8hm8UXct5lZQdBA6CVixSWtIgjOjdf18JpjfIMgi6T6TtcDbArfqFqECYj2weKuchFm2mbT9RCb4XRTRjmw1pZ/eJ8gE9RB18N8Ht6dRZgAfXY9zucR3FuE6SROuh7os9g8IqMAW1MP1XMfJMgMv57nNZOHGRruV9eDfQbTR2UUoKXJqHa4r8kp0k9Oo4t9i5vQUJ8Gj5hCAVS385q1XY+gdlv9zmfNKTSMnl7KZltHkaaTiLoedB2Ece0pNAzrp+th18DSqk+Qeen6WAz/GYLMYuhzmPFRfxUmk6jNoVt9RZrA0mUSR89NIcyiJjtvJ/IsQ6rHmVvYf1JI2RzOux78QxjXddjESdTisGZVJ2wqQYtsovfHQ/srcDU4yHjCJRWgg9WvGxjKQJ/KGwyvXmx/gZ7yp6bLp41hAlP57Yxn4iYJtGsGdzB6LqwQYCtuEg8NhZTZi++uOdzGrKmQGihWWpv6jZeh6p7bqIFPmsFVWpv+NF6GTEwDlcV038DrzmGrnEc0b74MmW+q8Lai39BlS6ByCNUk+BXgqrsQP1pQNAw9dc+hmoT3Aix1N6SaxYY5zFXXRCrR2O1OoO6Wm9doA0OAraqqeX6zuwRlj7wfStR7iKGqzncbXimHsl5NjSyo2zBVjYK/2jGHCvttu3bMocKpJ8+ejF4yVDSpNmwlduIM52HXZK7Ci1siqGzCqdfWFDKoeQQ1aEuVsklUlGFb5pCZCzUrFFpk6CrKsD0pVZRhi5pGUYZ+a9ZCVYbtWXxVdekTicGVUJNhWxtRDIr6NC3GFor6pe3Fh6rGFm+T1hiqGh+2tk+jbIx/uzK9DkNVj4Fb2y9Vdq8tbOdwTeH90uYJURlDVfe82znGZ7AVNYdvbx/tHD6huGsilRj1WmFoqtvszGknyicfXROpRjt+G1YzOuT4aWMhqnsEzDBow+YrnX/ptBEiUqXrZZ+veSpAFA3wE0TNF6KyoVOK5rtR5NQ1h9vYNBZT1fvUDZqmJ6K5qsk0GZpqU2Wj3xyLhiYRKxs5ZXiq20AB1O+awH000zU6lAJ7jbxvpENNfpM8WtWNYYIm7rcOVbIM+6cDYYWzgyU8X0dKVS4mETF5Up2ax65H/iju9WWtgvrWPsfhqSBK2QOZK3Ce6o2hdElXGTUb0nG4q65HXQtPWAxFEzCq4Fd2Yq8CVfVIrQp1u+4pvUt6Hat6RtHWx1JkqBcoatnXe1RDn6pd3lyJn8eXoqXwYcwt7B9ditq+dSZ8MJfPUn5/rRKe/QhFd6flIkwQPbAUUV/RTMTHsL1LESmaEPwwlvco6v86xNNtiq/w2qfVrb03tQ98H8UNilq2m7+CfRXFVyFYOYuvIaIJvq9RtF+I4Nvb5iLlDeEX0KIiPkqxlIn0C3nvYCi/ifSotat2HdN5cexGtThFqw0/yOJFbTp318YxEVRlq36aY5j4qC/1llUZ76mYvuwUpm8QQtocEz4B3t9UsyOYeuA963Roaf00BnB0qnA/tubwIf/0FcL6akAlra39zswtQMJUT/PNtduAvD78gk53AWiPibsexK8Cuta9NsMIGGp8THEfo5dnOCX/Lxi+cGiRMtQrNagmBj2kY2JJHUwMqv952m34692DmxiO5/th6ADCMPQBV3TUu59cAteE4XuohBp7cBAzI57P+ynm8ziO5/1gtZW92oGZXTNP0N996xK7jM82MRGHSW3bppYLP1o4EGVghbOrTItahF9CNXnjZzgdbnZ86wrtfhbD4Xa5Dyh8RnZQrGR/NNzwoke0O/wcTrOYwgf7qI1F4l197EwwnenJhcRVRA/iRbzCI40639cx/ImlzcvM+VtPxMpgf89PsWwxyYgnXefd+H2ep6SNwuYVm3Lt85ZwBsIs8hLyXp4lzhs4arOhx6tTSrVCY744hWrahGGhY6HHijYZuf4VhsnLalGQfy4z5G+hIP/VEBuCMzTLjuzRlA7JOUOhm8aawrt3/6shNsT7VYZ8dZp54X7CsLhoYVW1gEltiOOJxsTzKlyQ0POulkMm+0z+dHQ1hGDe1/XbvfnXvun6HCbnHzmnMkO+3XWpSwfrL057/DU34lmqer1lwNbs9+VYB8tdjIw42JTqXKLTHI53p/uYUHNX7mg12gTM9/rcrxMqwjMYrj7Z/eazRYlkBUOQw6KitsyQfbRKUzjdztwetWaMX79nIgOZZ1DG4TcGzYzccmbP9HjGmNoEIYKP2Z399SbAtmud3vwvbHI34yzlp0fBGRuxRcAJ239st/t/6eNxPgi7HaUu+02pELiCoWeJBiFhmMvGgRp0Jj+p9T8Ms26unNUZHEBub9ZvQ8O2KOWH7/Kcb2xibKJptJwzcTDdZKac+ZkbKnKITEoswv+uJ6Q3nzDZRX44ncDoTMuyXJqMfPRJ6Ww4Ha1n8M29lfhVFQx59nGuTRNdmlwUeicbGeUuRU60wjC4+fy8GnreOuAlPV89/PUxXE/4NIpF5Gwg/fR2kOyE0uZjoxXmHlVg4ePy42cG3giK86W6srOGj0nOKaXnJF1hbCE79ZTHUGlDRYredYb8vDzvmMUZos/dcXbcBS4xzGtp4x5cRDKJ49qYzpJPA3BshfeDflNBM0PdSP5NPn//A9klv434Wsm+bI0NO4tqYHjzaJg8mAFBhf8xhS/uCWuiiiEvp3ZFhoZJGFy+PNz54dLz/iFCCSfIRvEJdgDdPD1kbIvluvzmNBMKaLRbtOaE3d/8UnZd/qYq/ots1Duz8KwTRY+EV1pVMTy5ZYbm12S1nx0DA0QdWe5FkMj8AGHgX6ZY78huUBgfNr9ixh2MNl8Q8E7u4llA292sVIT5ioUTAu0Hs5Jf9sCkchL+xIr7VzHcuIJRl3Spt/20eFJZWVR/JIaMr3DazuxLPjMQqfTEb4SKWDIoGJJCf/IefMnoI1tg6LCpzsopv025MdQWrHUR+lQx/HZFTfMp+TTOiecJlsumZYbM3hSzBt+K+ulz5p09RKMN8pI99HeYw4IhLEuSLAg43s6FDxim+evwo3Tq7dlSD9oqhmDyC2shM0w7V5SLbmWGYyp2MwKGWduYE5vPvriMwfhm8wZHvIWUcoY0uRbKEnD2UB03vx94ZZak25H09odBhbUAucxPy3l8KHV541E/lf9MZigJFcxbPodMickpTRCjZnL2LjM8FQwhZsvnaorz9hCDC4ZwSlyUk1Yw9EHR5JycOSqdu/LoonSaLjMcVTLksZfoj4IcZW1zSnMIwpIy5BoklVj278hOZwlaLRJpS4Iv3nsMuX7LZTlhKC47vjUgP7mbDNcCQ5A8SSBCXMwOvEtWaBIEDLNOnUN4EDvOa4RR/l5jYCC3oDu5opAMelcZwmPIbVTCUKoE565QKefjLsP0Z3jxNhUVMaykTB6gtb7wLtileAzzzcZqGpvxeONace6Sh7RcfDgxxa/mDC/6gXg9Kf0vYSieFfCgq/QW81vrUGQISlGKvfg6HNxn+La02dgJZj77SdDFIL22KBNsHQq3mPYu9mnekim0i8fsxGUpnfINLDlOO8i69HIdpj/73BEXFuJCULvwS0HmZIbMqTNJvJusJYcKJFnqSkOkdJSrDCHFkQjbhbwgV3rzJVhVtxRALSWGbCVXMHxbufKQmO3tZUrLN6QOLJxh8TD82ZW0yynYVyE7Y2BLbj5naMsb+VPmn5NA+IeQ7y+KwSiYD6tk8dmzFIRvXc2Q97Qm+V8z21b4Bj6SRPggMfxAbnxlJ/rLlR43eypiqJYoRUllRGzG6E68U8h3ngTNCVtVuLyzz1SYMDaw8YH0qXiuUDuRhU/QqQUV1suHSKNwJcTkGSegoGdHFxz5eyHztOgBQlgMm7fcx4wLMXWW7AvxRApwueMjbB+Cz4nLxeEjnp+ciXIIZtfdprfxQRu4RTyy4/7/B/w2/GYRcj6fPvf4zewuA+7y76f8NiGvRnApJf3j92E7LuRyCLEpPfK7RLFpCyvAGScl78heDQeO43jDiUtM2pd2R5wB37UxzGAN1wwW7Flahmztw9U8Kfiw+ysmVJtPTOAwx+bxYrRLSl2JvUv/yvmGf6Hu12RPKJ5lz3c0x0kzjJ4bsKexMXhUbZi9xFous4ILhFxi2XiXj2Ecw1YBDr4nAaZxsVSdGcqrbE2KMfxnsWFIi3kaEJzWACB2AbExdam5KW13+WemwjnOFvvVZrX/YsHy5xyd2RJf/kt/h//lkj7eYct12Q17s+Jxrv9HU9j/2F2OOPt4TrTrRi5ERDi/nb9xe5bLBofnB2Foi/9Ri4NwWJRi67gs6Y/9mdL0EvY/9m2YHD8ut/M8z/P9d36IKk6/wwURfpn8ThD+wXazmvwMxVu9r4eAMQPI6XSdfcokcpqeA1KLB+KiFxKOfyarzVY+4J8uFovtdvuRYTGcXm43Rus1uyq9Yru4es1/hfcjXkUDbzCKtvuYGIo3DH4CbJkW+jw8UPW7zdbEkNhSejezeyioulhHbHulQhnf0qrz1V34LirxCedIk3yCxzDC5VUXmsh6pewvCHSJZMmGVON+H1eQbJ0KC9FH5KX0DAuwYZu7n1v00acdvFg+uwO5P8g6/kSjUfQxo+e9Nik9j8I52rBLR5gTafdwrEvqWS0Mj7FNmX9so+PLVlj60eJw2EavZCT+8Ic//AHwf3u91m6g/KpnAAAAAElFTkSuQmCC;" vertex="1" parent="1">
          <mxGeometry x="5249.86" y="5980" width="160" height="160" as="geometry" />
        </mxCell>
        <mxCell id="s1uv_Bq6hK1aH8mEB6v_-101" value="" style="rounded=1;arcSize=10;dashed=0;fillColor=none;gradientColor=none;strokeWidth=4;" vertex="1" parent="1">
          <mxGeometry x="3241.96" y="4056" width="910" height="836" as="geometry" />
        </mxCell>
        <mxCell id="s1uv_Bq6hK1aH8mEB6v_-102" value="" style="rounded=1;arcSize=10;dashed=0;fillColor=none;gradientColor=none;strokeWidth=4;" vertex="1" parent="1">
          <mxGeometry x="4351.96" y="4046.09" width="960" height="836" as="geometry" />
        </mxCell>
        <mxCell id="s1uv_Bq6hK1aH8mEB6v_-103" value="" style="verticalLabelPosition=bottom;html=1;verticalAlign=top;strokeWidth=1;align=center;outlineConnect=0;dashed=0;outlineConnect=0;shape=mxgraph.aws3d.application;fillColor=#4286c5;strokeColor=#57A2D8;aspect=fixed;" vertex="1" parent="1">
          <mxGeometry x="3481.96" y="4162" width="426.17" height="473" as="geometry" />
        </mxCell>
        <mxCell id="s1uv_Bq6hK1aH8mEB6v_-104" value="" style="verticalLabelPosition=bottom;html=1;verticalAlign=top;strokeWidth=1;align=center;outlineConnect=0;dashed=0;outlineConnect=0;shape=mxgraph.aws3d.application2;fillColor=#86E83A;strokeColor=#B0F373;aspect=fixed;" vertex="1" parent="1">
          <mxGeometry x="4491.47" y="4443" width="302.98" height="259" as="geometry" />
        </mxCell>
        <mxCell id="s1uv_Bq6hK1aH8mEB6v_-105" value="" style="verticalLabelPosition=bottom;html=1;verticalAlign=top;strokeWidth=1;align=center;outlineConnect=0;dashed=0;outlineConnect=0;shape=mxgraph.aws3d.application2;fillColor=#86E83A;strokeColor=#B0F373;aspect=fixed;" vertex="1" parent="1">
          <mxGeometry x="4870.47" y="4446" width="302.98" height="259" as="geometry" />
        </mxCell>
        <mxCell id="s1uv_Bq6hK1aH8mEB6v_-106" value="" style="verticalLabelPosition=bottom;html=1;verticalAlign=top;strokeWidth=1;align=center;outlineConnect=0;dashed=0;outlineConnect=0;shape=mxgraph.aws3d.application2;fillColor=#86E83A;strokeColor=#B0F373;aspect=fixed;" vertex="1" parent="1">
          <mxGeometry x="4680.47" y="4220.9" width="302.98" height="259" as="geometry" />
        </mxCell>
        <mxCell id="s1uv_Bq6hK1aH8mEB6v_-107" value="Old Ecommerce Service" style="text;strokeColor=none;fillColor=none;html=1;fontSize=44;fontStyle=1;verticalAlign=middle;align=center;" vertex="1" parent="1">
          <mxGeometry x="3645.04" y="4702" width="100" height="40" as="geometry" />
        </mxCell>
        <mxCell id="s1uv_Bq6hK1aH8mEB6v_-108" value="User Service" style="text;strokeColor=none;fillColor=none;html=1;fontSize=33;fontStyle=1;verticalAlign=middle;align=center;" vertex="1" parent="1">
          <mxGeometry x="4781.96" y="4154.9" width="100" height="40" as="geometry" />
        </mxCell>
        <mxCell id="s1uv_Bq6hK1aH8mEB6v_-109" value="Cart Service" style="text;strokeColor=none;fillColor=none;html=1;fontSize=33;fontStyle=1;verticalAlign=middle;align=center;" vertex="1" parent="1">
          <mxGeometry x="4592.96" y="4746" width="100" height="40" as="geometry" />
        </mxCell>
        <mxCell id="s1uv_Bq6hK1aH8mEB6v_-110" value="Old Product Service" style="text;strokeColor=none;fillColor=none;html=1;fontSize=33;fontStyle=1;verticalAlign=middle;align=center;" vertex="1" parent="1">
          <mxGeometry x="4971.96" y="4746" width="100" height="40" as="geometry" />
        </mxCell>
        <mxCell id="s1uv_Bq6hK1aH8mEB6v_-112" value="" style="edgeStyle=orthogonalEdgeStyle;html=1;endArrow=block;elbow=vertical;startArrow=block;startFill=1;endFill=1;strokeColor=#000000;curved=1;strokeWidth=4;" edge="1" parent="1">
          <mxGeometry width="100" relative="1" as="geometry">
            <mxPoint x="5173.448823529413" y="4425.4" as="sourcePoint" />
            <mxPoint x="5363.39" y="4275.4" as="targetPoint" />
            <Array as="points">
              <mxPoint x="5173.39" y="4275.4" />
            </Array>
          </mxGeometry>
        </mxCell>
        <mxCell id="s1uv_Bq6hK1aH8mEB6v_-114" value="Monolithic Architecture" style="text;strokeColor=none;fillColor=none;html=1;fontSize=40;fontStyle=1;verticalAlign=middle;align=center;" vertex="1" parent="1">
          <mxGeometry x="3646.96" y="3950" width="100" height="40" as="geometry" />
        </mxCell>
        <mxCell id="s1uv_Bq6hK1aH8mEB6v_-115" value="Micro Service Architecture" style="text;strokeColor=none;fillColor=none;html=1;fontSize=40;fontStyle=1;verticalAlign=middle;align=center;" vertex="1" parent="1">
          <mxGeometry x="4781.96" y="3950" width="100" height="40" as="geometry" />
        </mxCell>
        <mxCell id="s1uv_Bq6hK1aH8mEB6v_-116" value="" style="verticalLabelPosition=bottom;html=1;verticalAlign=top;strokeWidth=1;align=center;outlineConnect=0;dashed=0;outlineConnect=0;shape=mxgraph.aws3d.application2;fillColor=#86E83A;strokeColor=#B0F373;aspect=fixed;" vertex="1" parent="1">
          <mxGeometry x="5390" y="4130" width="302.98" height="259" as="geometry" />
        </mxCell>
        <mxCell id="s1uv_Bq6hK1aH8mEB6v_-117" value="New Product Service" style="text;strokeColor=none;fillColor=none;html=1;fontSize=33;fontStyle=1;verticalAlign=middle;align=center;" vertex="1" parent="1">
          <mxGeometry x="5491.49" y="4420" width="100" height="40" as="geometry" />
        </mxCell>
        <mxCell id="s1uv_Bq6hK1aH8mEB6v_-118" value="" style="edgeStyle=orthogonalEdgeStyle;html=1;endArrow=block;elbow=vertical;startArrow=block;startFill=1;endFill=1;strokeColor=#000000;curved=1;strokeWidth=4;" edge="1" parent="1">
          <mxGeometry width="100" relative="1" as="geometry">
            <mxPoint x="3458.51" y="4269" as="sourcePoint" />
            <mxPoint x="3198.51" y="4089" as="targetPoint" />
            <Array as="points">
              <mxPoint x="3458.51" y="4209" />
              <mxPoint x="3358.51" y="4209" />
              <mxPoint x="3358.51" y="4139" />
              <mxPoint x="3268.51" y="4139" />
              <mxPoint x="3268.51" y="4089" />
            </Array>
          </mxGeometry>
        </mxCell>
        <mxCell id="s1uv_Bq6hK1aH8mEB6v_-119" value="" style="verticalLabelPosition=bottom;html=1;verticalAlign=top;strokeWidth=1;align=center;outlineConnect=0;dashed=0;outlineConnect=0;shape=mxgraph.aws3d.application;fillColor=#4286c5;strokeColor=#57A2D8;aspect=fixed;" vertex="1" parent="1">
          <mxGeometry x="2730" y="3870" width="426.17" height="473" as="geometry" />
        </mxCell>
        <mxCell id="s1uv_Bq6hK1aH8mEB6v_-120" value="New Ecommerce Service" style="text;strokeColor=none;fillColor=none;html=1;fontSize=44;fontStyle=1;verticalAlign=middle;align=center;" vertex="1" parent="1">
          <mxGeometry x="2893.08" y="4420" width="100" height="40" as="geometry" />
        </mxCell>
        <mxCell id="s1uv_Bq6hK1aH8mEB6v_-123" value="" style="shape=image;verticalLabelPosition=bottom;labelBackgroundColor=default;verticalAlign=top;aspect=fixed;imageAspect=0;image=data:image/png,iVBORw0KGgoAAAANSUhEUgAAAOEAAADhCAMAAAAJbSJIAAAAk1BMVEX////YLCDYKBvWFQD76+rZLiHXJxrXHw7XIhPWCwDXJRf3397WEQDXIRHXHAnojor88O/++fj10M7nioXvtLHbPzX99PP32dfqm5f++vnzxcP21NLaNivplZHcSD/65uXjdG7trKnfW1TxvLnkenXtp6P0ysjgYFnfXFXhaWLmgn3dTEPeVU3ibmjtqabcSkHaOzDnFS/0AAARLUlEQVR4nO1daZuyOgwdWwXKroAoKqC4jNuM///X3VZncYE2wW3e+3i+zqikpFlO0vTt7YUXXnjhhRdeeOGFF1544YUXXrgTuu1nP8Hd0J3PthFlts1oOh3H/Wc/z23Rjnvvtu0apLGH5lBG8tB/9mPdDJ0gsl2zcQpiULL8XwgZezuqk0YpDGrmg2c/4HVoziJWJd6XkKw1az77MeuiW2wplYp3UFdKt8m/aHcGq6F9vvcqX6QdjaxnPzAO/mxHHfXrO3qRLl0X/8yLbCdb5mLEO0CznVX87GeHIOauwUCLd4Bub8Z/3H+0w82Fa9AwMpqUTP+w/+jkjF7Is5u4En9R8heH+48/+SKzWcrKtJNalheVW1XNpWmZ8Nx/5PO/ZnaSrXP5+g56N+HKWywvbI/msnUv6+nl79aw0172bKF+kY1atNq42HPxP83e8Mh/mJSm+1BmV6nAmusukicLdkA3nMgDM2399Z+daYOae/GM9/HhBSVU8sGGaRve01/kIGgpIxdafP93c7xh1F2Ofx57qfArxLWXRfc5ogn4H+vKtOH4JUZHViM+Tpiyil148iLpMHhSRDfncTXM19FZxVeMXMjHiW6n4cO5j6y3K/UN5XDLn68/hMZ2GtVXjwwE+sXSRQSehLKw9HsSG/wdPBCwNx8PSiStYCjxDRfi6WxXFaKsHYSE4kWaeefu4rXDT0XSfgKDDiX5wmwtC+hKv48Ne3d9kYOAAI2LAOGOIZGb+jiAp8lfX+raeXIns9Mdg3zDNxwWQQiYboFOJg0aje4QCHQqA8/ylSbwbLbZQxICghHYFOovRkBQZpislkQfuPxnMB2CXOMveER3s0CgP88hlNkZhp/v+cqbFQMrAwnbnUXYn9DZIrxBRJeNdgjf8AtCTMPRXWq72jBav+fBrEjKtqUfz4uxl08+0yH+R3hEN72O2ukXkzqc0oWwmmlwYVl0JNi8+Bjl65ZtUw7dMEnFzxC5qSXcoI1rv8jYU+cNKBzFp+9MyKWpVo+/pKWp2CKE2tM6jEC3mGB8Awz6t55agKRCbLQNz0RECKxYaMNOsf4jXh2S1WoIzeP7TEB3DFP5NvZw8q/vByQVJqU/xnJ+SYKcP46rT+D+wx+nTOKfiKlz2xqtF9xW9nqzXs9b5Yt1RLjamSo5D4zGW1uVVBDXXZw8sN9LVQZPLAnI7HSmrsS1my4bLr0izs4Dp3YWF95yyC7qhCf4YjQKeVJhlpYxOrmuclpcrceKOKrJl6o64Ncom8wsmeXqWrMJkz3HwdhsJMtAXLasKEUBAg+TNmT5R7KkruT10RREufvjSLKHGf8Ki1X+mScj0uShk6uCRyK+ovQ5s57UNxC6mAPEO2C+qHyPwtgEFZZUo1qu/BFfJABSGYUaBOemlWftVGqt9B2Ou0x2VU9BO/0yLl8kI2tgNXiw0lVZgGv2jj/R5sG93DfQJTYl6y4rqFBzMi5xFXyLYyoyXbm5F7C3v//tKSMzPUfKJzCt0sULY0F0uh5jlzBeteSvhQZf/zk2ld5XS2sI+PYWwUIiHpnV49G64URmtsnwYG+mTP0ctF62WUgp+y/obHJFCmR9yp5+v6tXkKdg9cp53Wqn8ANyDR/h96Q5ZUtImEEEvKeEWu032E9UwepeQhitfk8t1ai5qkGCZr1IlXAcJPRAWYy2qSXhGshcOXQ9w73IZGkAEnOEhA03UP7oJQI4t6RRCmezM89UeO8aEjbsFVa+PsiG/cKA0qsLMOeOkrBBNziXNVjjBGyIyNdURaWWh6HIcRLyxDCH05NZDtOjcxg0Kk8L9gg3mIoXWkKhRxNFFeKAdjJB0ccnENlhKa0UBxS7amgJRe5NpqHcQ2fFlFxJ0Jnsoizhi24I9BfVkLAh9Ej/zD861uUy963OLF/rtejjMxDXWR4la/FUEWNXoJ6EDZEbUKqTaJJ7s3EYFmE4nnn5JOIJgmugetgOnFb5n0zaOrxInichyzY/qC3h99MJGvsAV3DWqA9rBv9sI10G4WBRsSp8Ry6SpKxTDoorJawL/tps1tpMR4W1d3+y0M6kV+n8gyUkhL82xsyJN577v9muf3Ne/RcPk5CYjkudVrrtFfFFIr+4gWGqwgMkFLuNGelyNetY5STFGB35IHBXCTWHUqav+W6LmxICJoOVO2riPhJqwgHY7no1Tprqitc9dfROEg4321HRgVICM0xPFB73kJBEmFRWQu7fBvd4h8QlU3AqK6vP3OJZdt07SNgQnEQUgmrOvXvaUQ46eruPhPtuL0CrS3xnAd0DuQTj2vDQ7aXqFFN6Xx2li4OXyq7vJamASXfSQqB311eoMe/7h5L6obsK+3S9SsDOPe0oodERq9Rp3TFwM1haXldvR3dbWL4DyUnt8M3PAbWZ2tBoaZMigkvFQmfBxaJ2dvdT1YZwH5vzNu/5vXSUuHRVqjRhelcZNaqfcEttHCMABqGtUWXEGKbKQsdVcO0jkrCqOnwdNDuSnurrJ+/1WU4IDJp+sb2gmhQWJlurQykrx3HKWPBNIuYL+K2b/wjR6RJWdWh6w3p0PBTcfRT5rXWU0AaiIbobbu6rrNotKOOTL7QrT6xUoaNsdfxDcNi6zjwGf3RnZb0RiGvK2rx9WVzcLiY27lDS42HakfyE0ErR5hFPbfwZhMfBYJNC3kbVo0J+X0ar+LO/qqzC76jagQN7z9PEVac7v5As9b9ndUTqqbKe8Scle67NYqpWmQxVOn8ADPauUE/u80ZC+b4kPPA10n8vNuyvWB2eVSvV8+1tvNsnZ18SNmiqpv/ilXnX5AMIk7aU6snD3taXhfyWsKExQJeFP0trz2S5EQx7oo6t22FkfxuOHwl5YKBP1TL25/kzYx3XBkwF685+5TuRUOThAPV+a46M57gPjdKRumHK9xonHvxEwkO3jFrGt2LjPrwwbtB1+Wn3E8T5eTvYmYQih0wh59webXVcHdLUlywu7f2FhEIZhpBZIv7HnSmP4ycyAE3E/fFnmc8ukfCQLEMOjnQUxzNuA4N+AtTTH2nlSlUqYWPfdAVR1mavYjTSrUBcYwtgJniCULXWVRLuSTkIK9AuFvbdrA757omSol+8S5K8agmFssImGFmBfRerw/UIUIPsKo76yCRs7PsQIfRHP/y8NfHCl3cJsJ5WtXrCJNxPoAAdRerkqrPIKPlAW6Rf5h3QEjb2M2FgVmd3I6vD1RPQ6yCCZMjvASTc144ujvKVIdlghrpUwAHFVdYKqjMgCfcjdCYQwk4M5rnG6iiIs2/MAep5gJb2YRI2DqwW4EV2w03tDEt4B3Vs3R1/wqMpe/wGlnDvftXnV9/EQfBaGZbJhoD9nqG0xJ7uP2TB+64MuoOMFPNH6KZsg24A248HioidTuzvYz5LRFQi+mQAO6VfbCQn3i+gu4DUtIusb+qtH4bNj1CBl24vlETXmziKDK3T6XSl9n7ZCGfENJYfBSvdiY3aOCYdAkzCm98zbPVDlXUVXC7X1kHtbWKnZybjw8TFz9I+mSMUa3k8x61XoIwL+2H53NdKaDS6pICbU2xoyUMPyPy7+bZ6NgDhoYTyK7LeEKAJxw9mVxAe8RZbFiW0AfHP1qo8PDZtwKzgwRRyjvL4W5nEKFtbGxl1EQdEEPm91tmZF2JSCsjNuJKjmHbCraA8UWh6LWyKoFEXchR7vkr3o6A0MS6K0iHgzodmr4FTT65TAKMMDdmP4dKqUSsnsApvuthsFnkwjtVZZ7xSTqI5BbyW30/wRRhTeiqyBpJ3JCVrshTipL9h4elQMazxVlM3uzNk0CcIl4of71eJXUdZDbauPzXtF1ngItWTtqoZ3qTaRohxBVgWjf8WbA5VNTpbvHpKph419yxGv8pKcEeGVladIgaKXUAVAl3+HJNOPcpa5r6OX+1B+mPkTzaEI9frjYjtzkycd9C4d5A6qrFtHpioocwIdWq08rmI6QjfsDwkW8eDM/n4UGth/3BtqXTNFeOxSuHYG9iRki/EuY7ridZVkb8f6EL7viQ0HUXolVzeyaGCSU0PqqydBW4vaFRX8Kn9nnNYsR++lG0UNtAKWnirw7YQZZ1vcHU6k6YKPtXv/WjELyNsKkvk/hjfkynashTKmkxwW4BbT0XE3vQavw3Ix5y3Qd9VK97B3/9j0t1MYsiSCSp6IZSp6H4ejx0/4ymrL2I7hYx+D93mRiit2JDtEFcI4NGvbLUEOudc8XndAhKfF0vVQL8L8A15MS+k3QET819fokwo28Xljr6szBDaUuZYVoAOzA17lxe/32sVqxTVuwogMf1eVBIwlNWeIJXRdoh7wMZ+HKUzXG9XwWq5Hjq4MRcmbaiqUVlQznZUVNcgDEpnqqErhkQzHMcBTuP9gU7fVSveqcwSKuuHhBrKifHNGhkWGoSaqgcRRwsqn0NWIXXou8qy9ufwkVS1YNpDlTI15R338howt3XKLCHzVAOj68NRV2sGuaKnR1XlJq6tDLz64QTtPgAglKjIWOEdVFEWoI5vsI3yjoN4hSQelNBs5T0ksHYlSKeCSDSVraf+bHjDNjdxMkoRzsZTExZAwur4xGEb5fWZ8xu19AM6vfrJJ5DwPExoBVW5udooqW1rdH3DCaCW7/d2YLbD3Ze5gXV84urKglq3mFzV0g/oGIxXBL7nzcOQXfh4EUMd3PMNUrsn07GV3gFHNujDgzp0d5jLjZgy1unO0houkriOqpbfxZkz8jueO0GdG3d43q6itpMlsieTyHjrA+IAmW0ZR+RTgiVK1I3SWYC4eYdHwarcYb7AceEmy08MVrbGeWxRiVRZnfY4gjFoGo0UVF/7A3nuyqSTC43/aGDvWmJD5bzYOYAO0GiqkM/ykBGTUX7Bge9ho0ue2CinJVkrKl05YquiF8gqncCp5jCbAZpJA5Tx/V71dSfc/SkStLHy3pVTiHNtsghTNE0jCRhNze9VPKbm6oq9nHnIoZeikqjKEtrhBh146UzZBTbfOqdCmuKqY/nKdHK5gl/AhFZo5/jKqPJENd8CYa4z6uqOuKWM2ZNeLN1+fXSbqsGUbM4vrMDAl/GpurfeKmbedBrMClVvvN8jyEK+SwFnC4/RHuPPFxjVd43iIDkBUw6N7iCNhOeY5zZ2ypHgxa6+zjZZIrMTg23qXq2QebJrrcrhXHmv5BgZtEMreJUIZXdblUOjet2bwpsj5JIK73D1rbKDKf4wDF9X+LVQP4hXyG1h0M1t7rEW14Chm4fsNehqr1+ggzOd3fLm4xrUtpjRBrffPHVHLaJG3bpboQoZfrQScaA+OGzh+mhgp57RaIf4aTWQc9P9MMW10esUdK6lFuIVOvnQVF39YYQyn6S+pYahO0NfmysLqNozXEuyAR1texVqTKtx2LLknvD+YIUaYERct44TqoNshLQM++Qj6BzvyO5gtEYW8hverS6oBqBdfKru5bt4Qp0O371iPogH88KbDGUXZZasEBve4m5qFKwpQWdY+1Ht4gJn9X2zp4vjgs7n3Bz+x/oR02oIHd7s/nQ85vguMCREqeamhwDQaI6At4PVAYR3fgTucXe3gAabW/EQxAGipAcED/iU7QOPRHesvGgZBQd2OP6x6CxvNbyWuJChXM/AbabVaPaNj1DdFG1xMeFV8pkM1+P/BFjBFRdsOazqgNbfQg02WYC4JoL3eDI6OTrDIrb8oog/h2yEapTm5uU2xOAj0Q8/oYG5SZVnBP4oBltId52pPufxh5GNVPGcKT9A+A+g+zFk1RvSYJN/+P39IKk4pcmjs+2VZ2r/DDq5c55F8twvhUxl+mfQnL3bP/SM5lAWBYM/Hp3h0S1G7y2bMWZuAsWFwi+88MILL7zwwgsvvPDCCy+88MILl/gPaWZcSn7Y1PkAAAAASUVORK5CYII=;" vertex="1" parent="1">
          <mxGeometry x="4590" y="5970" width="170" height="170" as="geometry" />
        </mxCell>
        <mxCell id="s1uv_Bq6hK1aH8mEB6v_-127" value="" style="shape=image;verticalLabelPosition=bottom;labelBackgroundColor=default;verticalAlign=top;aspect=fixed;imageAspect=0;image=https://miro.medium.com/v2/resize:fit:700/1*bc9pmTiyKR0WNPka2w3e0Q.png;" vertex="1" parent="1">
          <mxGeometry x="4399.37" y="5950" width="180" height="180" as="geometry" />
        </mxCell>
      </root>
    </mxGraphModel>
  </diagram>
</mxfile>
